<mxfile host="Electron" modified="2024-02-17T21:04:05.613Z" agent="Mozilla/5.0 (Macintosh; Intel Mac OS X 10_15_7) AppleWebKit/537.36 (KHTML, like Gecko) draw.io/21.2.8 Chrome/112.0.5615.165 Electron/24.2.0 Safari/537.36" etag="JXC_ocMkS-Og16K8f0FD" version="21.2.8" type="device" pages="2">
  <diagram name="MCD" id="2uQ3SQ_AGPYORQNNaHPl">
    <mxGraphModel dx="954" dy="674" grid="1" gridSize="10" guides="1" tooltips="1" connect="1" arrows="1" fold="1" page="1" pageScale="1" pageWidth="1000" pageHeight="1100" math="0" shadow="0">
      <root>
        <mxCell id="0" />
        <mxCell id="1" parent="0" />
        <mxCell id="IuXfnVJ2rITcJYY4_jFk-1" value="Album" style="swimlane;fontStyle=0;childLayout=stackLayout;horizontal=1;startSize=30;horizontalStack=0;resizeParent=1;resizeParentMax=0;resizeLast=0;collapsible=1;marginBottom=0;whiteSpace=wrap;html=1;" parent="1" vertex="1">
          <mxGeometry x="160" y="390" width="140" height="180" as="geometry" />
        </mxCell>
        <mxCell id="IuXfnVJ2rITcJYY4_jFk-2" value="Pk : idAlbum" style="text;strokeColor=none;fillColor=none;align=left;verticalAlign=middle;spacingLeft=4;spacingRight=4;overflow=hidden;points=[[0,0.5],[1,0.5]];portConstraint=eastwest;rotatable=0;whiteSpace=wrap;html=1;" parent="IuXfnVJ2rITcJYY4_jFk-1" vertex="1">
          <mxGeometry y="30" width="140" height="30" as="geometry" />
        </mxCell>
        <mxCell id="IuXfnVJ2rITcJYY4_jFk-3" value="+ titreAlbum" style="text;strokeColor=none;fillColor=none;align=left;verticalAlign=middle;spacingLeft=4;spacingRight=4;overflow=hidden;points=[[0,0.5],[1,0.5]];portConstraint=eastwest;rotatable=0;whiteSpace=wrap;html=1;" parent="IuXfnVJ2rITcJYY4_jFk-1" vertex="1">
          <mxGeometry y="60" width="140" height="30" as="geometry" />
        </mxCell>
        <mxCell id="IuXfnVJ2rITcJYY4_jFk-4" value="+ descriptionAlbum" style="text;strokeColor=none;fillColor=none;align=left;verticalAlign=middle;spacingLeft=4;spacingRight=4;overflow=hidden;points=[[0,0.5],[1,0.5]];portConstraint=eastwest;rotatable=0;whiteSpace=wrap;html=1;" parent="IuXfnVJ2rITcJYY4_jFk-1" vertex="1">
          <mxGeometry y="90" width="140" height="30" as="geometry" />
        </mxCell>
        <mxCell id="IuXfnVJ2rITcJYY4_jFk-33" value="+ dateSortieAlbum" style="text;strokeColor=none;fillColor=none;align=left;verticalAlign=middle;spacingLeft=4;spacingRight=4;overflow=hidden;points=[[0,0.5],[1,0.5]];portConstraint=eastwest;rotatable=0;whiteSpace=wrap;html=1;" parent="IuXfnVJ2rITcJYY4_jFk-1" vertex="1">
          <mxGeometry y="120" width="140" height="30" as="geometry" />
        </mxCell>
        <mxCell id="IuXfnVJ2rITcJYY4_jFk-34" value="+ coverAlbum" style="text;strokeColor=none;fillColor=none;align=left;verticalAlign=middle;spacingLeft=4;spacingRight=4;overflow=hidden;points=[[0,0.5],[1,0.5]];portConstraint=eastwest;rotatable=0;whiteSpace=wrap;html=1;" parent="IuXfnVJ2rITcJYY4_jFk-1" vertex="1">
          <mxGeometry y="150" width="140" height="30" as="geometry" />
        </mxCell>
        <mxCell id="IuXfnVJ2rITcJYY4_jFk-5" value="Son" style="swimlane;fontStyle=0;childLayout=stackLayout;horizontal=1;startSize=30;horizontalStack=0;resizeParent=1;resizeParentMax=0;resizeLast=0;collapsible=1;marginBottom=0;whiteSpace=wrap;html=1;" parent="1" vertex="1">
          <mxGeometry x="160" y="810" width="140" height="180" as="geometry" />
        </mxCell>
        <mxCell id="IuXfnVJ2rITcJYY4_jFk-6" value="Pk : idSon" style="text;strokeColor=none;fillColor=none;align=left;verticalAlign=middle;spacingLeft=4;spacingRight=4;overflow=hidden;points=[[0,0.5],[1,0.5]];portConstraint=eastwest;rotatable=0;whiteSpace=wrap;html=1;" parent="IuXfnVJ2rITcJYY4_jFk-5" vertex="1">
          <mxGeometry y="30" width="140" height="30" as="geometry" />
        </mxCell>
        <mxCell id="IuXfnVJ2rITcJYY4_jFk-7" value="+ titreSon" style="text;strokeColor=none;fillColor=none;align=left;verticalAlign=middle;spacingLeft=4;spacingRight=4;overflow=hidden;points=[[0,0.5],[1,0.5]];portConstraint=eastwest;rotatable=0;whiteSpace=wrap;html=1;" parent="IuXfnVJ2rITcJYY4_jFk-5" vertex="1">
          <mxGeometry y="60" width="140" height="30" as="geometry" />
        </mxCell>
        <mxCell id="IuXfnVJ2rITcJYY4_jFk-8" value="+ dureeSon" style="text;strokeColor=none;fillColor=none;align=left;verticalAlign=middle;spacingLeft=4;spacingRight=4;overflow=hidden;points=[[0,0.5],[1,0.5]];portConstraint=eastwest;rotatable=0;whiteSpace=wrap;html=1;" parent="IuXfnVJ2rITcJYY4_jFk-5" vertex="1">
          <mxGeometry y="90" width="140" height="30" as="geometry" />
        </mxCell>
        <mxCell id="IuXfnVJ2rITcJYY4_jFk-32" value="+ fichierMp3" style="text;strokeColor=none;fillColor=none;align=left;verticalAlign=middle;spacingLeft=4;spacingRight=4;overflow=hidden;points=[[0,0.5],[1,0.5]];portConstraint=eastwest;rotatable=0;whiteSpace=wrap;html=1;" parent="IuXfnVJ2rITcJYY4_jFk-5" vertex="1">
          <mxGeometry y="120" width="140" height="30" as="geometry" />
        </mxCell>
        <mxCell id="lXBU07AeXJU2dTcZg_Sr-1" value="+ nbStream" style="text;strokeColor=none;fillColor=none;align=left;verticalAlign=middle;spacingLeft=4;spacingRight=4;overflow=hidden;points=[[0,0.5],[1,0.5]];portConstraint=eastwest;rotatable=0;whiteSpace=wrap;html=1;" parent="IuXfnVJ2rITcJYY4_jFk-5" vertex="1">
          <mxGeometry y="150" width="140" height="30" as="geometry" />
        </mxCell>
        <mxCell id="IuXfnVJ2rITcJYY4_jFk-10" value="1" style="rounded=1;whiteSpace=wrap;html=1;" parent="1" vertex="1">
          <mxGeometry x="240" y="720" width="50" height="20" as="geometry" />
        </mxCell>
        <mxCell id="IuXfnVJ2rITcJYY4_jFk-12" value="Artiste" style="swimlane;fontStyle=0;childLayout=stackLayout;horizontal=1;startSize=30;horizontalStack=0;resizeParent=1;resizeParentMax=0;resizeLast=0;collapsible=1;marginBottom=0;whiteSpace=wrap;html=1;" parent="1" vertex="1">
          <mxGeometry x="600" y="110" width="140" height="120" as="geometry" />
        </mxCell>
        <mxCell id="IuXfnVJ2rITcJYY4_jFk-13" value="Pk : idArtiste" style="text;strokeColor=none;fillColor=none;align=left;verticalAlign=middle;spacingLeft=4;spacingRight=4;overflow=hidden;points=[[0,0.5],[1,0.5]];portConstraint=eastwest;rotatable=0;whiteSpace=wrap;html=1;" parent="IuXfnVJ2rITcJYY4_jFk-12" vertex="1">
          <mxGeometry y="30" width="140" height="30" as="geometry" />
        </mxCell>
        <mxCell id="IuXfnVJ2rITcJYY4_jFk-14" value="+ nomArtiste" style="text;strokeColor=none;fillColor=none;align=left;verticalAlign=middle;spacingLeft=4;spacingRight=4;overflow=hidden;points=[[0,0.5],[1,0.5]];portConstraint=eastwest;rotatable=0;whiteSpace=wrap;html=1;" parent="IuXfnVJ2rITcJYY4_jFk-12" vertex="1">
          <mxGeometry y="60" width="140" height="30" as="geometry" />
        </mxCell>
        <mxCell id="IuXfnVJ2rITcJYY4_jFk-15" value="+ imageArtiste" style="text;strokeColor=none;fillColor=none;align=left;verticalAlign=middle;spacingLeft=4;spacingRight=4;overflow=hidden;points=[[0,0.5],[1,0.5]];portConstraint=eastwest;rotatable=0;whiteSpace=wrap;html=1;" parent="IuXfnVJ2rITcJYY4_jFk-12" vertex="1">
          <mxGeometry y="90" width="140" height="30" as="geometry" />
        </mxCell>
        <mxCell id="IuXfnVJ2rITcJYY4_jFk-17" value="*" style="rounded=1;whiteSpace=wrap;html=1;" parent="1" vertex="1">
          <mxGeometry x="530" y="281" width="50" height="20" as="geometry" />
        </mxCell>
        <mxCell id="IuXfnVJ2rITcJYY4_jFk-18" value="GENRE" style="swimlane;fontStyle=0;childLayout=stackLayout;horizontal=1;startSize=30;horizontalStack=0;resizeParent=1;resizeParentMax=0;resizeLast=0;collapsible=1;marginBottom=0;whiteSpace=wrap;html=1;" parent="1" vertex="1">
          <mxGeometry x="160" y="130" width="140" height="90" as="geometry" />
        </mxCell>
        <mxCell id="IuXfnVJ2rITcJYY4_jFk-19" value="Pk : idGenre" style="text;strokeColor=none;fillColor=none;align=left;verticalAlign=middle;spacingLeft=4;spacingRight=4;overflow=hidden;points=[[0,0.5],[1,0.5]];portConstraint=eastwest;rotatable=0;whiteSpace=wrap;html=1;" parent="IuXfnVJ2rITcJYY4_jFk-18" vertex="1">
          <mxGeometry y="30" width="140" height="30" as="geometry" />
        </mxCell>
        <mxCell id="IuXfnVJ2rITcJYY4_jFk-20" value="+ titreGenre" style="text;strokeColor=none;fillColor=none;align=left;verticalAlign=middle;spacingLeft=4;spacingRight=4;overflow=hidden;points=[[0,0.5],[1,0.5]];portConstraint=eastwest;rotatable=0;whiteSpace=wrap;html=1;" parent="IuXfnVJ2rITcJYY4_jFk-18" vertex="1">
          <mxGeometry y="60" width="140" height="30" as="geometry" />
        </mxCell>
        <mxCell id="IuXfnVJ2rITcJYY4_jFk-23" value="*" style="rounded=1;whiteSpace=wrap;html=1;" parent="1" vertex="1">
          <mxGeometry x="250" y="329" width="50" height="20" as="geometry" />
        </mxCell>
        <mxCell id="IuXfnVJ2rITcJYY4_jFk-24" value="Utilisateur" style="swimlane;fontStyle=0;childLayout=stackLayout;horizontal=1;startSize=30;horizontalStack=0;resizeParent=1;resizeParentMax=0;resizeLast=0;collapsible=1;marginBottom=0;whiteSpace=wrap;html=1;" parent="1" vertex="1">
          <mxGeometry x="600" y="400" width="140" height="180" as="geometry" />
        </mxCell>
        <mxCell id="IuXfnVJ2rITcJYY4_jFk-25" value="Pk : idUtilisateur" style="text;strokeColor=none;fillColor=none;align=left;verticalAlign=middle;spacingLeft=4;spacingRight=4;overflow=hidden;points=[[0,0.5],[1,0.5]];portConstraint=eastwest;rotatable=0;whiteSpace=wrap;html=1;" parent="IuXfnVJ2rITcJYY4_jFk-24" vertex="1">
          <mxGeometry y="30" width="140" height="30" as="geometry" />
        </mxCell>
        <mxCell id="IuXfnVJ2rITcJYY4_jFk-26" value="+ nomUtil" style="text;strokeColor=none;fillColor=none;align=left;verticalAlign=middle;spacingLeft=4;spacingRight=4;overflow=hidden;points=[[0,0.5],[1,0.5]];portConstraint=eastwest;rotatable=0;whiteSpace=wrap;html=1;" parent="IuXfnVJ2rITcJYY4_jFk-24" vertex="1">
          <mxGeometry y="60" width="140" height="30" as="geometry" />
        </mxCell>
        <mxCell id="IuXfnVJ2rITcJYY4_jFk-27" value="+ prenomUtil" style="text;strokeColor=none;fillColor=none;align=left;verticalAlign=middle;spacingLeft=4;spacingRight=4;overflow=hidden;points=[[0,0.5],[1,0.5]];portConstraint=eastwest;rotatable=0;whiteSpace=wrap;html=1;" parent="IuXfnVJ2rITcJYY4_jFk-24" vertex="1">
          <mxGeometry y="90" width="140" height="30" as="geometry" />
        </mxCell>
        <mxCell id="IuXfnVJ2rITcJYY4_jFk-37" value="+ pseudoUtil" style="text;strokeColor=none;fillColor=none;align=left;verticalAlign=middle;spacingLeft=4;spacingRight=4;overflow=hidden;points=[[0,0.5],[1,0.5]];portConstraint=eastwest;rotatable=0;whiteSpace=wrap;html=1;" parent="IuXfnVJ2rITcJYY4_jFk-24" vertex="1">
          <mxGeometry y="120" width="140" height="30" as="geometry" />
        </mxCell>
        <mxCell id="IuXfnVJ2rITcJYY4_jFk-38" value="+ mdpUtil" style="text;strokeColor=none;fillColor=none;align=left;verticalAlign=middle;spacingLeft=4;spacingRight=4;overflow=hidden;points=[[0,0.5],[1,0.5]];portConstraint=eastwest;rotatable=0;whiteSpace=wrap;html=1;" parent="IuXfnVJ2rITcJYY4_jFk-24" vertex="1">
          <mxGeometry y="150" width="140" height="30" as="geometry" />
        </mxCell>
        <mxCell id="IuXfnVJ2rITcJYY4_jFk-28" value="Playlist" style="swimlane;fontStyle=0;childLayout=stackLayout;horizontal=1;startSize=30;horizontalStack=0;resizeParent=1;resizeParentMax=0;resizeLast=0;collapsible=1;marginBottom=0;whiteSpace=wrap;html=1;" parent="1" vertex="1">
          <mxGeometry x="600" y="830" width="140" height="90" as="geometry" />
        </mxCell>
        <mxCell id="IuXfnVJ2rITcJYY4_jFk-29" value="Pk : idPlaylist" style="text;strokeColor=none;fillColor=none;align=left;verticalAlign=middle;spacingLeft=4;spacingRight=4;overflow=hidden;points=[[0,0.5],[1,0.5]];portConstraint=eastwest;rotatable=0;whiteSpace=wrap;html=1;" parent="IuXfnVJ2rITcJYY4_jFk-28" vertex="1">
          <mxGeometry y="30" width="140" height="30" as="geometry" />
        </mxCell>
        <mxCell id="IuXfnVJ2rITcJYY4_jFk-30" value="+ nomPlaylist" style="text;strokeColor=none;fillColor=none;align=left;verticalAlign=middle;spacingLeft=4;spacingRight=4;overflow=hidden;points=[[0,0.5],[1,0.5]];portConstraint=eastwest;rotatable=0;whiteSpace=wrap;html=1;" parent="IuXfnVJ2rITcJYY4_jFk-28" vertex="1">
          <mxGeometry y="60" width="140" height="30" as="geometry" />
        </mxCell>
        <mxCell id="IuXfnVJ2rITcJYY4_jFk-43" value="*" style="rounded=1;whiteSpace=wrap;html=1;" parent="1" vertex="1">
          <mxGeometry x="490" y="865" width="50" height="20" as="geometry" />
        </mxCell>
        <mxCell id="IuXfnVJ2rITcJYY4_jFk-45" value="*" style="rounded=1;whiteSpace=wrap;html=1;" parent="1" vertex="1">
          <mxGeometry x="675" y="654" width="50" height="20" as="geometry" />
        </mxCell>
        <mxCell id="IuXfnVJ2rITcJYY4_jFk-46" value="Composer" style="rhombus;whiteSpace=wrap;html=1;" parent="1" vertex="1">
          <mxGeometry x="175" y="660" width="110" height="50" as="geometry" />
        </mxCell>
        <mxCell id="IuXfnVJ2rITcJYY4_jFk-47" value="" style="endArrow=none;html=1;rounded=0;exitX=0.5;exitY=0;exitDx=0;exitDy=0;entryX=0.5;entryY=1;entryDx=0;entryDy=0;" parent="1" source="IuXfnVJ2rITcJYY4_jFk-5" target="IuXfnVJ2rITcJYY4_jFk-46" edge="1">
          <mxGeometry width="50" height="50" relative="1" as="geometry">
            <mxPoint x="240" y="740" as="sourcePoint" />
            <mxPoint x="290" y="690" as="targetPoint" />
          </mxGeometry>
        </mxCell>
        <mxCell id="IuXfnVJ2rITcJYY4_jFk-48" value="" style="endArrow=none;html=1;rounded=0;exitX=0.5;exitY=0;exitDx=0;exitDy=0;entryX=0.496;entryY=0.94;entryDx=0;entryDy=0;entryPerimeter=0;" parent="1" source="IuXfnVJ2rITcJYY4_jFk-46" target="IuXfnVJ2rITcJYY4_jFk-34" edge="1">
          <mxGeometry width="50" height="50" relative="1" as="geometry">
            <mxPoint x="240" y="820" as="sourcePoint" />
            <mxPoint x="240" y="710" as="targetPoint" />
          </mxGeometry>
        </mxCell>
        <mxCell id="IuXfnVJ2rITcJYY4_jFk-49" value="*" style="rounded=1;whiteSpace=wrap;html=1;" parent="1" vertex="1">
          <mxGeometry x="240" y="640" width="50" height="20" as="geometry" />
        </mxCell>
        <mxCell id="IuXfnVJ2rITcJYY4_jFk-51" value="Appartenir" style="rhombus;whiteSpace=wrap;html=1;" parent="1" vertex="1">
          <mxGeometry x="175" y="280" width="110" height="50" as="geometry" />
        </mxCell>
        <mxCell id="IuXfnVJ2rITcJYY4_jFk-52" value="" style="endArrow=none;html=1;rounded=0;exitX=0.5;exitY=0;exitDx=0;exitDy=0;entryX=0.5;entryY=1;entryDx=0;entryDy=0;" parent="1" source="IuXfnVJ2rITcJYY4_jFk-1" target="IuXfnVJ2rITcJYY4_jFk-51" edge="1">
          <mxGeometry width="50" height="50" relative="1" as="geometry">
            <mxPoint x="150" y="360" as="sourcePoint" />
            <mxPoint x="200" y="310" as="targetPoint" />
          </mxGeometry>
        </mxCell>
        <mxCell id="IuXfnVJ2rITcJYY4_jFk-53" value="" style="endArrow=none;html=1;rounded=0;exitX=0.5;exitY=0;exitDx=0;exitDy=0;entryX=0.501;entryY=1.018;entryDx=0;entryDy=0;entryPerimeter=0;" parent="1" source="IuXfnVJ2rITcJYY4_jFk-51" target="IuXfnVJ2rITcJYY4_jFk-20" edge="1">
          <mxGeometry width="50" height="50" relative="1" as="geometry">
            <mxPoint x="264.6" y="250" as="sourcePoint" />
            <mxPoint x="264.6" y="190" as="targetPoint" />
          </mxGeometry>
        </mxCell>
        <mxCell id="IuXfnVJ2rITcJYY4_jFk-54" value="1" style="rounded=1;whiteSpace=wrap;html=1;" parent="1" vertex="1">
          <mxGeometry x="247" y="261" width="50" height="20" as="geometry" />
        </mxCell>
        <mxCell id="IuXfnVJ2rITcJYY4_jFk-55" value="Sortir" style="rhombus;whiteSpace=wrap;html=1;" parent="1" vertex="1">
          <mxGeometry x="410" y="281" width="110" height="50" as="geometry" />
        </mxCell>
        <mxCell id="IuXfnVJ2rITcJYY4_jFk-56" value="" style="endArrow=none;html=1;rounded=0;exitX=1;exitY=0;exitDx=0;exitDy=0;entryX=0;entryY=1;entryDx=0;entryDy=0;" parent="1" source="IuXfnVJ2rITcJYY4_jFk-1" target="IuXfnVJ2rITcJYY4_jFk-55" edge="1">
          <mxGeometry width="50" height="50" relative="1" as="geometry">
            <mxPoint x="320" y="380" as="sourcePoint" />
            <mxPoint x="370" y="330" as="targetPoint" />
          </mxGeometry>
        </mxCell>
        <mxCell id="IuXfnVJ2rITcJYY4_jFk-57" value="" style="endArrow=none;html=1;rounded=0;exitX=1;exitY=0;exitDx=0;exitDy=0;entryX=0.25;entryY=1;entryDx=0;entryDy=0;" parent="1" source="IuXfnVJ2rITcJYY4_jFk-55" target="IuXfnVJ2rITcJYY4_jFk-12" edge="1">
          <mxGeometry width="50" height="50" relative="1" as="geometry">
            <mxPoint x="310" y="400" as="sourcePoint" />
            <mxPoint x="428" y="347" as="targetPoint" />
          </mxGeometry>
        </mxCell>
        <mxCell id="IuXfnVJ2rITcJYY4_jFk-58" value="1" style="rounded=1;whiteSpace=wrap;html=1;" parent="1" vertex="1">
          <mxGeometry x="410" y="340" width="50" height="20" as="geometry" />
        </mxCell>
        <mxCell id="IuXfnVJ2rITcJYY4_jFk-59" value="Constituer" style="rhombus;whiteSpace=wrap;html=1;" parent="1" vertex="1">
          <mxGeometry x="390" y="870" width="110" height="50" as="geometry" />
        </mxCell>
        <mxCell id="IuXfnVJ2rITcJYY4_jFk-60" value="" style="endArrow=none;html=1;rounded=0;exitX=0;exitY=0.5;exitDx=0;exitDy=0;entryX=0.991;entryY=0.839;entryDx=0;entryDy=0;entryPerimeter=0;" parent="1" source="IuXfnVJ2rITcJYY4_jFk-59" target="IuXfnVJ2rITcJYY4_jFk-7" edge="1">
          <mxGeometry width="50" height="50" relative="1" as="geometry">
            <mxPoint x="320" y="920" as="sourcePoint" />
            <mxPoint x="370" y="870" as="targetPoint" />
          </mxGeometry>
        </mxCell>
        <mxCell id="IuXfnVJ2rITcJYY4_jFk-61" value="" style="endArrow=none;html=1;rounded=0;exitX=-0.009;exitY=0.173;exitDx=0;exitDy=0;entryX=1;entryY=0.5;entryDx=0;entryDy=0;exitPerimeter=0;" parent="1" source="IuXfnVJ2rITcJYY4_jFk-30" target="IuXfnVJ2rITcJYY4_jFk-59" edge="1">
          <mxGeometry width="50" height="50" relative="1" as="geometry">
            <mxPoint x="400" y="905" as="sourcePoint" />
            <mxPoint x="309" y="905" as="targetPoint" />
          </mxGeometry>
        </mxCell>
        <mxCell id="IuXfnVJ2rITcJYY4_jFk-62" value="*" style="rounded=1;whiteSpace=wrap;html=1;" parent="1" vertex="1">
          <mxGeometry x="341" y="866" width="50" height="20" as="geometry" />
        </mxCell>
        <mxCell id="IuXfnVJ2rITcJYY4_jFk-63" value="Concevoir" style="rhombus;whiteSpace=wrap;html=1;" parent="1" vertex="1">
          <mxGeometry x="615" y="680" width="110" height="50" as="geometry" />
        </mxCell>
        <mxCell id="IuXfnVJ2rITcJYY4_jFk-64" value="" style="endArrow=none;html=1;rounded=0;entryX=0.5;entryY=1;entryDx=0;entryDy=0;exitX=0.5;exitY=0;exitDx=0;exitDy=0;" parent="1" source="IuXfnVJ2rITcJYY4_jFk-28" target="IuXfnVJ2rITcJYY4_jFk-63" edge="1">
          <mxGeometry width="50" height="50" relative="1" as="geometry">
            <mxPoint x="570" y="780" as="sourcePoint" />
            <mxPoint x="620" y="730" as="targetPoint" />
          </mxGeometry>
        </mxCell>
        <mxCell id="IuXfnVJ2rITcJYY4_jFk-65" value="" style="endArrow=none;html=1;rounded=0;entryX=0.499;entryY=1.024;entryDx=0;entryDy=0;exitX=0.5;exitY=0;exitDx=0;exitDy=0;entryPerimeter=0;" parent="1" source="IuXfnVJ2rITcJYY4_jFk-63" target="IuXfnVJ2rITcJYY4_jFk-38" edge="1">
          <mxGeometry width="50" height="50" relative="1" as="geometry">
            <mxPoint x="680" y="840" as="sourcePoint" />
            <mxPoint x="680" y="740" as="targetPoint" />
          </mxGeometry>
        </mxCell>
        <mxCell id="IuXfnVJ2rITcJYY4_jFk-66" value="1" style="rounded=1;whiteSpace=wrap;html=1;" parent="1" vertex="1">
          <mxGeometry x="675" y="734" width="50" height="20" as="geometry" />
        </mxCell>
        <mxCell id="IuXfnVJ2rITcJYY4_jFk-67" value="LikerSon" style="rhombus;whiteSpace=wrap;html=1;" parent="1" vertex="1">
          <mxGeometry x="410" y="660" width="110" height="50" as="geometry" />
        </mxCell>
        <mxCell id="IuXfnVJ2rITcJYY4_jFk-68" value="LikerAlbum" style="rhombus;whiteSpace=wrap;html=1;" parent="1" vertex="1">
          <mxGeometry x="410" y="430" width="110" height="50" as="geometry" />
        </mxCell>
        <mxCell id="IuXfnVJ2rITcJYY4_jFk-69" value="EcouterRecement" style="rhombus;whiteSpace=wrap;html=1;" parent="1" vertex="1">
          <mxGeometry x="410" y="520" width="110" height="50" as="geometry" />
        </mxCell>
        <mxCell id="IuXfnVJ2rITcJYY4_jFk-70" value="LikerArtiste" style="rhombus;whiteSpace=wrap;html=1;" parent="1" vertex="1">
          <mxGeometry x="615" y="290" width="110" height="50" as="geometry" />
        </mxCell>
        <mxCell id="IuXfnVJ2rITcJYY4_jFk-73" value="*" style="rounded=1;whiteSpace=wrap;html=1;" parent="1" vertex="1">
          <mxGeometry x="430" y="720" width="50" height="20" as="geometry" />
        </mxCell>
        <mxCell id="IuXfnVJ2rITcJYY4_jFk-74" value="*" style="rounded=1;whiteSpace=wrap;html=1;" parent="1" vertex="1">
          <mxGeometry x="520" y="660" width="50" height="20" as="geometry" />
        </mxCell>
        <mxCell id="IuXfnVJ2rITcJYY4_jFk-75" value="" style="endArrow=none;html=1;rounded=0;exitX=1;exitY=0;exitDx=0;exitDy=0;entryX=0;entryY=1;entryDx=0;entryDy=0;" parent="1" source="IuXfnVJ2rITcJYY4_jFk-5" target="IuXfnVJ2rITcJYY4_jFk-67" edge="1">
          <mxGeometry width="50" height="50" relative="1" as="geometry">
            <mxPoint x="300" y="760" as="sourcePoint" />
            <mxPoint x="350" y="710" as="targetPoint" />
          </mxGeometry>
        </mxCell>
        <mxCell id="IuXfnVJ2rITcJYY4_jFk-76" value="" style="endArrow=none;html=1;rounded=0;exitX=0.007;exitY=1.013;exitDx=0;exitDy=0;exitPerimeter=0;entryX=1;entryY=0;entryDx=0;entryDy=0;" parent="1" source="IuXfnVJ2rITcJYY4_jFk-38" target="IuXfnVJ2rITcJYY4_jFk-67" edge="1">
          <mxGeometry width="50" height="50" relative="1" as="geometry">
            <mxPoint x="310" y="820" as="sourcePoint" />
            <mxPoint x="500" y="620" as="targetPoint" />
          </mxGeometry>
        </mxCell>
        <mxCell id="IuXfnVJ2rITcJYY4_jFk-77" value="" style="endArrow=none;html=1;rounded=0;exitX=0;exitY=0.5;exitDx=0;exitDy=0;entryX=1.002;entryY=0.208;entryDx=0;entryDy=0;entryPerimeter=0;" parent="1" source="IuXfnVJ2rITcJYY4_jFk-69" target="IuXfnVJ2rITcJYY4_jFk-34" edge="1">
          <mxGeometry width="50" height="50" relative="1" as="geometry">
            <mxPoint x="310" y="820" as="sourcePoint" />
            <mxPoint x="448" y="708" as="targetPoint" />
          </mxGeometry>
        </mxCell>
        <mxCell id="IuXfnVJ2rITcJYY4_jFk-78" value="" style="endArrow=none;html=1;rounded=0;exitX=0;exitY=0.5;exitDx=0;exitDy=0;entryX=1;entryY=0.5;entryDx=0;entryDy=0;" parent="1" target="IuXfnVJ2rITcJYY4_jFk-69" edge="1">
          <mxGeometry width="50" height="50" relative="1" as="geometry">
            <mxPoint x="600" y="544.5" as="sourcePoint" />
            <mxPoint x="490" y="545.5" as="targetPoint" />
          </mxGeometry>
        </mxCell>
        <mxCell id="IuXfnVJ2rITcJYY4_jFk-79" value="4" style="rounded=1;whiteSpace=wrap;html=1;" parent="1" vertex="1">
          <mxGeometry x="510" y="560" width="50" height="20" as="geometry" />
        </mxCell>
        <mxCell id="IuXfnVJ2rITcJYY4_jFk-80" value="*" style="rounded=1;whiteSpace=wrap;html=1;" parent="1" vertex="1">
          <mxGeometry x="370" y="560" width="50" height="20" as="geometry" />
        </mxCell>
        <mxCell id="IuXfnVJ2rITcJYY4_jFk-81" value="" style="endArrow=none;html=1;rounded=0;exitX=0;exitY=0.5;exitDx=0;exitDy=0;entryX=1.002;entryY=0.208;entryDx=0;entryDy=0;entryPerimeter=0;" parent="1" edge="1">
          <mxGeometry width="50" height="50" relative="1" as="geometry">
            <mxPoint x="410" y="455" as="sourcePoint" />
            <mxPoint x="300" y="456" as="targetPoint" />
          </mxGeometry>
        </mxCell>
        <mxCell id="IuXfnVJ2rITcJYY4_jFk-82" value="" style="endArrow=none;html=1;rounded=0;exitX=0;exitY=0.5;exitDx=0;exitDy=0;entryX=1;entryY=0.5;entryDx=0;entryDy=0;" parent="1" edge="1">
          <mxGeometry width="50" height="50" relative="1" as="geometry">
            <mxPoint x="600" y="454.5" as="sourcePoint" />
            <mxPoint x="520" y="455" as="targetPoint" />
          </mxGeometry>
        </mxCell>
        <mxCell id="IuXfnVJ2rITcJYY4_jFk-83" value="*" style="rounded=1;whiteSpace=wrap;html=1;" parent="1" vertex="1">
          <mxGeometry x="510" y="468" width="50" height="20" as="geometry" />
        </mxCell>
        <mxCell id="IuXfnVJ2rITcJYY4_jFk-84" value="*" style="rounded=1;whiteSpace=wrap;html=1;" parent="1" vertex="1">
          <mxGeometry x="370" y="468" width="50" height="20" as="geometry" />
        </mxCell>
        <mxCell id="IuXfnVJ2rITcJYY4_jFk-85" value="" style="endArrow=none;html=1;rounded=0;entryX=0.5;entryY=1;entryDx=0;entryDy=0;exitX=0.5;exitY=0;exitDx=0;exitDy=0;" parent="1" source="IuXfnVJ2rITcJYY4_jFk-24" target="IuXfnVJ2rITcJYY4_jFk-70" edge="1">
          <mxGeometry width="50" height="50" relative="1" as="geometry">
            <mxPoint x="610" y="430" as="sourcePoint" />
            <mxPoint x="660" y="380" as="targetPoint" />
          </mxGeometry>
        </mxCell>
        <mxCell id="IuXfnVJ2rITcJYY4_jFk-86" value="" style="endArrow=none;html=1;rounded=0;entryX=0.503;entryY=1.017;entryDx=0;entryDy=0;exitX=0.5;exitY=0;exitDx=0;exitDy=0;entryPerimeter=0;" parent="1" source="IuXfnVJ2rITcJYY4_jFk-70" target="IuXfnVJ2rITcJYY4_jFk-15" edge="1">
          <mxGeometry width="50" height="50" relative="1" as="geometry">
            <mxPoint x="680" y="410" as="sourcePoint" />
            <mxPoint x="680" y="350" as="targetPoint" />
          </mxGeometry>
        </mxCell>
        <mxCell id="IuXfnVJ2rITcJYY4_jFk-88" value="*" style="rounded=1;whiteSpace=wrap;html=1;" parent="1" vertex="1">
          <mxGeometry x="680" y="349" width="50" height="20" as="geometry" />
        </mxCell>
        <mxCell id="IuXfnVJ2rITcJYY4_jFk-89" value="*" style="rounded=1;whiteSpace=wrap;html=1;" parent="1" vertex="1">
          <mxGeometry x="680" y="270" width="50" height="20" as="geometry" />
        </mxCell>
      </root>
    </mxGraphModel>
  </diagram>
  <diagram id="MtvjV_RNUseu63BADrd-" name="Diagramme Classes">
    <mxGraphModel dx="3180" dy="2247" grid="1" gridSize="10" guides="1" tooltips="1" connect="1" arrows="1" fold="1" page="1" pageScale="1" pageWidth="2200" pageHeight="2300" math="0" shadow="0">
      <root>
        <mxCell id="0" />
        <mxCell id="1" parent="0" />
        <mxCell id="kX5vgCcboWEuCoNkR2Qn-6" value="Album" style="swimlane;fontStyle=1;align=center;verticalAlign=top;childLayout=stackLayout;horizontal=1;startSize=26;horizontalStack=0;resizeParent=1;resizeParentMax=0;resizeLast=0;collapsible=1;marginBottom=0;whiteSpace=wrap;html=1;" vertex="1" parent="1">
          <mxGeometry x="60" y="715" width="290" height="542" as="geometry" />
        </mxCell>
        <mxCell id="kX5vgCcboWEuCoNkR2Qn-7" value="- id: int" style="text;strokeColor=none;fillColor=none;align=left;verticalAlign=top;spacingLeft=4;spacingRight=4;overflow=hidden;rotatable=0;points=[[0,0.5],[1,0.5]];portConstraint=eastwest;whiteSpace=wrap;html=1;" vertex="1" parent="kX5vgCcboWEuCoNkR2Qn-6">
          <mxGeometry y="26" width="290" height="26" as="geometry" />
        </mxCell>
        <mxCell id="kX5vgCcboWEuCoNkR2Qn-14" value="- titre: string" style="text;strokeColor=none;fillColor=none;align=left;verticalAlign=top;spacingLeft=4;spacingRight=4;overflow=hidden;rotatable=0;points=[[0,0.5],[1,0.5]];portConstraint=eastwest;whiteSpace=wrap;html=1;" vertex="1" parent="kX5vgCcboWEuCoNkR2Qn-6">
          <mxGeometry y="52" width="290" height="26" as="geometry" />
        </mxCell>
        <mxCell id="kX5vgCcboWEuCoNkR2Qn-13" value="- description: string" style="text;strokeColor=none;fillColor=none;align=left;verticalAlign=top;spacingLeft=4;spacingRight=4;overflow=hidden;rotatable=0;points=[[0,0.5],[1,0.5]];portConstraint=eastwest;whiteSpace=wrap;html=1;" vertex="1" parent="kX5vgCcboWEuCoNkR2Qn-6">
          <mxGeometry y="78" width="290" height="26" as="geometry" />
        </mxCell>
        <mxCell id="kX5vgCcboWEuCoNkR2Qn-12" value="- date: date" style="text;strokeColor=none;fillColor=none;align=left;verticalAlign=top;spacingLeft=4;spacingRight=4;overflow=hidden;rotatable=0;points=[[0,0.5],[1,0.5]];portConstraint=eastwest;whiteSpace=wrap;html=1;" vertex="1" parent="kX5vgCcboWEuCoNkR2Qn-6">
          <mxGeometry y="104" width="290" height="26" as="geometry" />
        </mxCell>
        <mxCell id="kX5vgCcboWEuCoNkR2Qn-11" value="- cover: blob" style="text;strokeColor=none;fillColor=none;align=left;verticalAlign=top;spacingLeft=4;spacingRight=4;overflow=hidden;rotatable=0;points=[[0,0.5],[1,0.5]];portConstraint=eastwest;whiteSpace=wrap;html=1;" vertex="1" parent="kX5vgCcboWEuCoNkR2Qn-6">
          <mxGeometry y="130" width="290" height="26" as="geometry" />
        </mxCell>
        <mxCell id="kX5vgCcboWEuCoNkR2Qn-15" value="- idArtiste: int" style="text;strokeColor=none;fillColor=none;align=left;verticalAlign=top;spacingLeft=4;spacingRight=4;overflow=hidden;rotatable=0;points=[[0,0.5],[1,0.5]];portConstraint=eastwest;whiteSpace=wrap;html=1;" vertex="1" parent="kX5vgCcboWEuCoNkR2Qn-6">
          <mxGeometry y="156" width="290" height="26" as="geometry" />
        </mxCell>
        <mxCell id="kX5vgCcboWEuCoNkR2Qn-8" value="" style="line;strokeWidth=1;fillColor=none;align=left;verticalAlign=middle;spacingTop=-1;spacingLeft=3;spacingRight=3;rotatable=0;labelPosition=right;points=[];portConstraint=eastwest;strokeColor=inherit;" vertex="1" parent="kX5vgCcboWEuCoNkR2Qn-6">
          <mxGeometry y="182" width="290" height="8" as="geometry" />
        </mxCell>
        <mxCell id="kX5vgCcboWEuCoNkR2Qn-9" value="+ __construct(id: int, titre: string, description: int, date: date, cover: blob, idArtiste: int)" style="text;strokeColor=none;fillColor=none;align=left;verticalAlign=top;spacingLeft=4;spacingRight=4;overflow=hidden;rotatable=0;points=[[0,0.5],[1,0.5]];portConstraint=eastwest;whiteSpace=wrap;html=1;" vertex="1" parent="kX5vgCcboWEuCoNkR2Qn-6">
          <mxGeometry y="190" width="290" height="40" as="geometry" />
        </mxCell>
        <mxCell id="kX5vgCcboWEuCoNkR2Qn-18" value="+ getId(): int" style="text;strokeColor=none;fillColor=none;align=left;verticalAlign=top;spacingLeft=4;spacingRight=4;overflow=hidden;rotatable=0;points=[[0,0.5],[1,0.5]];portConstraint=eastwest;whiteSpace=wrap;html=1;" vertex="1" parent="kX5vgCcboWEuCoNkR2Qn-6">
          <mxGeometry y="230" width="290" height="26" as="geometry" />
        </mxCell>
        <mxCell id="kX5vgCcboWEuCoNkR2Qn-17" value="+ getTitre(): string" style="text;strokeColor=none;fillColor=none;align=left;verticalAlign=top;spacingLeft=4;spacingRight=4;overflow=hidden;rotatable=0;points=[[0,0.5],[1,0.5]];portConstraint=eastwest;whiteSpace=wrap;html=1;" vertex="1" parent="kX5vgCcboWEuCoNkR2Qn-6">
          <mxGeometry y="256" width="290" height="26" as="geometry" />
        </mxCell>
        <mxCell id="kX5vgCcboWEuCoNkR2Qn-16" value="+ getDescription(): string" style="text;strokeColor=none;fillColor=none;align=left;verticalAlign=top;spacingLeft=4;spacingRight=4;overflow=hidden;rotatable=0;points=[[0,0.5],[1,0.5]];portConstraint=eastwest;whiteSpace=wrap;html=1;" vertex="1" parent="kX5vgCcboWEuCoNkR2Qn-6">
          <mxGeometry y="282" width="290" height="26" as="geometry" />
        </mxCell>
        <mxCell id="kX5vgCcboWEuCoNkR2Qn-21" value="+ getDate(): date" style="text;strokeColor=none;fillColor=none;align=left;verticalAlign=top;spacingLeft=4;spacingRight=4;overflow=hidden;rotatable=0;points=[[0,0.5],[1,0.5]];portConstraint=eastwest;whiteSpace=wrap;html=1;" vertex="1" parent="kX5vgCcboWEuCoNkR2Qn-6">
          <mxGeometry y="308" width="290" height="26" as="geometry" />
        </mxCell>
        <mxCell id="kX5vgCcboWEuCoNkR2Qn-20" value="+ getCover(): blob" style="text;strokeColor=none;fillColor=none;align=left;verticalAlign=top;spacingLeft=4;spacingRight=4;overflow=hidden;rotatable=0;points=[[0,0.5],[1,0.5]];portConstraint=eastwest;whiteSpace=wrap;html=1;" vertex="1" parent="kX5vgCcboWEuCoNkR2Qn-6">
          <mxGeometry y="334" width="290" height="26" as="geometry" />
        </mxCell>
        <mxCell id="kX5vgCcboWEuCoNkR2Qn-19" value="+ getIdArtiste(): int" style="text;strokeColor=none;fillColor=none;align=left;verticalAlign=top;spacingLeft=4;spacingRight=4;overflow=hidden;rotatable=0;points=[[0,0.5],[1,0.5]];portConstraint=eastwest;whiteSpace=wrap;html=1;" vertex="1" parent="kX5vgCcboWEuCoNkR2Qn-6">
          <mxGeometry y="360" width="290" height="26" as="geometry" />
        </mxCell>
        <mxCell id="kX5vgCcboWEuCoNkR2Qn-24" value="+ setTitre(titre: string): void" style="text;strokeColor=none;fillColor=none;align=left;verticalAlign=top;spacingLeft=4;spacingRight=4;overflow=hidden;rotatable=0;points=[[0,0.5],[1,0.5]];portConstraint=eastwest;whiteSpace=wrap;html=1;" vertex="1" parent="kX5vgCcboWEuCoNkR2Qn-6">
          <mxGeometry y="386" width="290" height="26" as="geometry" />
        </mxCell>
        <mxCell id="kX5vgCcboWEuCoNkR2Qn-23" value="&lt;span style=&quot;color: rgb(0, 0, 0); font-family: Helvetica; font-size: 12px; font-style: normal; font-variant-ligatures: normal; font-variant-caps: normal; font-weight: 400; letter-spacing: normal; orphans: 2; text-align: left; text-indent: 0px; text-transform: none; widows: 2; word-spacing: 0px; -webkit-text-stroke-width: 0px; background-color: rgb(251, 251, 251); text-decoration-thickness: initial; text-decoration-style: initial; text-decoration-color: initial; float: none; display: inline !important;&quot;&gt;+ setDescription(description: string): void&lt;/span&gt;" style="text;strokeColor=none;fillColor=none;align=left;verticalAlign=top;spacingLeft=4;spacingRight=4;overflow=hidden;rotatable=0;points=[[0,0.5],[1,0.5]];portConstraint=eastwest;whiteSpace=wrap;html=1;" vertex="1" parent="kX5vgCcboWEuCoNkR2Qn-6">
          <mxGeometry y="412" width="290" height="26" as="geometry" />
        </mxCell>
        <mxCell id="kX5vgCcboWEuCoNkR2Qn-22" value="+ setDate(date: date): void" style="text;strokeColor=none;fillColor=none;align=left;verticalAlign=top;spacingLeft=4;spacingRight=4;overflow=hidden;rotatable=0;points=[[0,0.5],[1,0.5]];portConstraint=eastwest;whiteSpace=wrap;html=1;" vertex="1" parent="kX5vgCcboWEuCoNkR2Qn-6">
          <mxGeometry y="438" width="290" height="26" as="geometry" />
        </mxCell>
        <mxCell id="kX5vgCcboWEuCoNkR2Qn-26" value="+ setCover(cover: blob): void" style="text;strokeColor=none;fillColor=none;align=left;verticalAlign=top;spacingLeft=4;spacingRight=4;overflow=hidden;rotatable=0;points=[[0,0.5],[1,0.5]];portConstraint=eastwest;whiteSpace=wrap;html=1;" vertex="1" parent="kX5vgCcboWEuCoNkR2Qn-6">
          <mxGeometry y="464" width="290" height="26" as="geometry" />
        </mxCell>
        <mxCell id="kX5vgCcboWEuCoNkR2Qn-25" value="+ setIdArtiste(idArtiste: int): void" style="text;strokeColor=none;fillColor=none;align=left;verticalAlign=top;spacingLeft=4;spacingRight=4;overflow=hidden;rotatable=0;points=[[0,0.5],[1,0.5]];portConstraint=eastwest;whiteSpace=wrap;html=1;" vertex="1" parent="kX5vgCcboWEuCoNkR2Qn-6">
          <mxGeometry y="490" width="290" height="26" as="geometry" />
        </mxCell>
        <mxCell id="kX5vgCcboWEuCoNkR2Qn-28" value="+ toJson(): string" style="text;strokeColor=none;fillColor=none;align=left;verticalAlign=top;spacingLeft=4;spacingRight=4;overflow=hidden;rotatable=0;points=[[0,0.5],[1,0.5]];portConstraint=eastwest;whiteSpace=wrap;html=1;" vertex="1" parent="kX5vgCcboWEuCoNkR2Qn-6">
          <mxGeometry y="516" width="290" height="26" as="geometry" />
        </mxCell>
        <mxCell id="kX5vgCcboWEuCoNkR2Qn-29" value="Artist" style="swimlane;fontStyle=1;align=center;verticalAlign=top;childLayout=stackLayout;horizontal=1;startSize=26;horizontalStack=0;resizeParent=1;resizeParentMax=0;resizeLast=0;collapsible=1;marginBottom=0;whiteSpace=wrap;html=1;" vertex="1" parent="1">
          <mxGeometry x="570" y="715" width="290" height="286" as="geometry" />
        </mxCell>
        <mxCell id="kX5vgCcboWEuCoNkR2Qn-30" value="- id: int" style="text;strokeColor=none;fillColor=none;align=left;verticalAlign=top;spacingLeft=4;spacingRight=4;overflow=hidden;rotatable=0;points=[[0,0.5],[1,0.5]];portConstraint=eastwest;whiteSpace=wrap;html=1;" vertex="1" parent="kX5vgCcboWEuCoNkR2Qn-29">
          <mxGeometry y="26" width="290" height="26" as="geometry" />
        </mxCell>
        <mxCell id="kX5vgCcboWEuCoNkR2Qn-31" value="- name: string" style="text;strokeColor=none;fillColor=none;align=left;verticalAlign=top;spacingLeft=4;spacingRight=4;overflow=hidden;rotatable=0;points=[[0,0.5],[1,0.5]];portConstraint=eastwest;whiteSpace=wrap;html=1;" vertex="1" parent="kX5vgCcboWEuCoNkR2Qn-29">
          <mxGeometry y="52" width="290" height="26" as="geometry" />
        </mxCell>
        <mxCell id="kX5vgCcboWEuCoNkR2Qn-32" value="- picture: blob" style="text;strokeColor=none;fillColor=none;align=left;verticalAlign=top;spacingLeft=4;spacingRight=4;overflow=hidden;rotatable=0;points=[[0,0.5],[1,0.5]];portConstraint=eastwest;whiteSpace=wrap;html=1;" vertex="1" parent="kX5vgCcboWEuCoNkR2Qn-29">
          <mxGeometry y="78" width="290" height="26" as="geometry" />
        </mxCell>
        <mxCell id="kX5vgCcboWEuCoNkR2Qn-36" value="" style="line;strokeWidth=1;fillColor=none;align=left;verticalAlign=middle;spacingTop=-1;spacingLeft=3;spacingRight=3;rotatable=0;labelPosition=right;points=[];portConstraint=eastwest;strokeColor=inherit;" vertex="1" parent="kX5vgCcboWEuCoNkR2Qn-29">
          <mxGeometry y="104" width="290" height="8" as="geometry" />
        </mxCell>
        <mxCell id="kX5vgCcboWEuCoNkR2Qn-37" value="+ __construct(id: int, name: string, picture: blob)" style="text;strokeColor=none;fillColor=none;align=left;verticalAlign=top;spacingLeft=4;spacingRight=4;overflow=hidden;rotatable=0;points=[[0,0.5],[1,0.5]];portConstraint=eastwest;whiteSpace=wrap;html=1;" vertex="1" parent="kX5vgCcboWEuCoNkR2Qn-29">
          <mxGeometry y="112" width="290" height="18" as="geometry" />
        </mxCell>
        <mxCell id="kX5vgCcboWEuCoNkR2Qn-38" value="+ getId(): int" style="text;strokeColor=none;fillColor=none;align=left;verticalAlign=top;spacingLeft=4;spacingRight=4;overflow=hidden;rotatable=0;points=[[0,0.5],[1,0.5]];portConstraint=eastwest;whiteSpace=wrap;html=1;" vertex="1" parent="kX5vgCcboWEuCoNkR2Qn-29">
          <mxGeometry y="130" width="290" height="26" as="geometry" />
        </mxCell>
        <mxCell id="kX5vgCcboWEuCoNkR2Qn-39" value="+ getName(): string" style="text;strokeColor=none;fillColor=none;align=left;verticalAlign=top;spacingLeft=4;spacingRight=4;overflow=hidden;rotatable=0;points=[[0,0.5],[1,0.5]];portConstraint=eastwest;whiteSpace=wrap;html=1;" vertex="1" parent="kX5vgCcboWEuCoNkR2Qn-29">
          <mxGeometry y="156" width="290" height="26" as="geometry" />
        </mxCell>
        <mxCell id="kX5vgCcboWEuCoNkR2Qn-40" value="+ getPicture(): blob" style="text;strokeColor=none;fillColor=none;align=left;verticalAlign=top;spacingLeft=4;spacingRight=4;overflow=hidden;rotatable=0;points=[[0,0.5],[1,0.5]];portConstraint=eastwest;whiteSpace=wrap;html=1;" vertex="1" parent="kX5vgCcboWEuCoNkR2Qn-29">
          <mxGeometry y="182" width="290" height="26" as="geometry" />
        </mxCell>
        <mxCell id="kX5vgCcboWEuCoNkR2Qn-41" value="+ setName(name: String): void" style="text;strokeColor=none;fillColor=none;align=left;verticalAlign=top;spacingLeft=4;spacingRight=4;overflow=hidden;rotatable=0;points=[[0,0.5],[1,0.5]];portConstraint=eastwest;whiteSpace=wrap;html=1;" vertex="1" parent="kX5vgCcboWEuCoNkR2Qn-29">
          <mxGeometry y="208" width="290" height="26" as="geometry" />
        </mxCell>
        <mxCell id="kX5vgCcboWEuCoNkR2Qn-42" value="+ setPicture(picture:&amp;nbsp;blob):void" style="text;strokeColor=none;fillColor=none;align=left;verticalAlign=top;spacingLeft=4;spacingRight=4;overflow=hidden;rotatable=0;points=[[0,0.5],[1,0.5]];portConstraint=eastwest;whiteSpace=wrap;html=1;" vertex="1" parent="kX5vgCcboWEuCoNkR2Qn-29">
          <mxGeometry y="234" width="290" height="26" as="geometry" />
        </mxCell>
        <mxCell id="kX5vgCcboWEuCoNkR2Qn-49" value="+ toJson(): string" style="text;strokeColor=none;fillColor=none;align=left;verticalAlign=top;spacingLeft=4;spacingRight=4;overflow=hidden;rotatable=0;points=[[0,0.5],[1,0.5]];portConstraint=eastwest;whiteSpace=wrap;html=1;" vertex="1" parent="kX5vgCcboWEuCoNkR2Qn-29">
          <mxGeometry y="260" width="290" height="26" as="geometry" />
        </mxCell>
        <mxCell id="kX5vgCcboWEuCoNkR2Qn-50" value="" style="endArrow=none;html=1;rounded=0;entryX=0;entryY=0.5;entryDx=0;entryDy=0;exitX=1;exitY=0.5;exitDx=0;exitDy=0;" edge="1" parent="1" source="kX5vgCcboWEuCoNkR2Qn-15" target="kX5vgCcboWEuCoNkR2Qn-39">
          <mxGeometry width="50" height="50" relative="1" as="geometry">
            <mxPoint x="310" y="835" as="sourcePoint" />
            <mxPoint x="360" y="785" as="targetPoint" />
          </mxGeometry>
        </mxCell>
        <mxCell id="kX5vgCcboWEuCoNkR2Qn-51" value="- artiste" style="rounded=1;whiteSpace=wrap;html=1;" vertex="1" parent="1">
          <mxGeometry x="500" y="846.5" width="60" height="23" as="geometry" />
        </mxCell>
        <mxCell id="kX5vgCcboWEuCoNkR2Qn-52" value="1" style="rounded=1;whiteSpace=wrap;html=1;" vertex="1" parent="1">
          <mxGeometry x="500" y="895" width="60" height="23" as="geometry" />
        </mxCell>
        <mxCell id="kX5vgCcboWEuCoNkR2Qn-53" value="Genre" style="swimlane;fontStyle=1;align=center;verticalAlign=top;childLayout=stackLayout;horizontal=1;startSize=26;horizontalStack=0;resizeParent=1;resizeParentMax=0;resizeLast=0;collapsible=1;marginBottom=0;whiteSpace=wrap;html=1;" vertex="1" parent="1">
          <mxGeometry x="70" y="325" width="290" height="234" as="geometry" />
        </mxCell>
        <mxCell id="kX5vgCcboWEuCoNkR2Qn-54" value="- id: int" style="text;strokeColor=none;fillColor=none;align=left;verticalAlign=top;spacingLeft=4;spacingRight=4;overflow=hidden;rotatable=0;points=[[0,0.5],[1,0.5]];portConstraint=eastwest;whiteSpace=wrap;html=1;" vertex="1" parent="kX5vgCcboWEuCoNkR2Qn-53">
          <mxGeometry y="26" width="290" height="26" as="geometry" />
        </mxCell>
        <mxCell id="kX5vgCcboWEuCoNkR2Qn-55" value="- titre: string" style="text;strokeColor=none;fillColor=none;align=left;verticalAlign=top;spacingLeft=4;spacingRight=4;overflow=hidden;rotatable=0;points=[[0,0.5],[1,0.5]];portConstraint=eastwest;whiteSpace=wrap;html=1;" vertex="1" parent="kX5vgCcboWEuCoNkR2Qn-53">
          <mxGeometry y="52" width="290" height="26" as="geometry" />
        </mxCell>
        <mxCell id="kX5vgCcboWEuCoNkR2Qn-57" value="" style="line;strokeWidth=1;fillColor=none;align=left;verticalAlign=middle;spacingTop=-1;spacingLeft=3;spacingRight=3;rotatable=0;labelPosition=right;points=[];portConstraint=eastwest;strokeColor=inherit;" vertex="1" parent="kX5vgCcboWEuCoNkR2Qn-53">
          <mxGeometry y="78" width="290" height="8" as="geometry" />
        </mxCell>
        <mxCell id="kX5vgCcboWEuCoNkR2Qn-58" value="+ __construct(id: int, name: string)" style="text;strokeColor=none;fillColor=none;align=left;verticalAlign=top;spacingLeft=4;spacingRight=4;overflow=hidden;rotatable=0;points=[[0,0.5],[1,0.5]];portConstraint=eastwest;whiteSpace=wrap;html=1;" vertex="1" parent="kX5vgCcboWEuCoNkR2Qn-53">
          <mxGeometry y="86" width="290" height="18" as="geometry" />
        </mxCell>
        <mxCell id="kX5vgCcboWEuCoNkR2Qn-59" value="+ getId(): int" style="text;strokeColor=none;fillColor=none;align=left;verticalAlign=top;spacingLeft=4;spacingRight=4;overflow=hidden;rotatable=0;points=[[0,0.5],[1,0.5]];portConstraint=eastwest;whiteSpace=wrap;html=1;" vertex="1" parent="kX5vgCcboWEuCoNkR2Qn-53">
          <mxGeometry y="104" width="290" height="26" as="geometry" />
        </mxCell>
        <mxCell id="kX5vgCcboWEuCoNkR2Qn-61" value="+ getTitre(): string" style="text;strokeColor=none;fillColor=none;align=left;verticalAlign=top;spacingLeft=4;spacingRight=4;overflow=hidden;rotatable=0;points=[[0,0.5],[1,0.5]];portConstraint=eastwest;whiteSpace=wrap;html=1;" vertex="1" parent="kX5vgCcboWEuCoNkR2Qn-53">
          <mxGeometry y="130" width="290" height="26" as="geometry" />
        </mxCell>
        <mxCell id="kX5vgCcboWEuCoNkR2Qn-62" value="+ setId(id: int): void" style="text;strokeColor=none;fillColor=none;align=left;verticalAlign=top;spacingLeft=4;spacingRight=4;overflow=hidden;rotatable=0;points=[[0,0.5],[1,0.5]];portConstraint=eastwest;whiteSpace=wrap;html=1;" vertex="1" parent="kX5vgCcboWEuCoNkR2Qn-53">
          <mxGeometry y="156" width="290" height="26" as="geometry" />
        </mxCell>
        <mxCell id="kX5vgCcboWEuCoNkR2Qn-63" value="+ setTitre(titre:&amp;nbsp;string):void" style="text;strokeColor=none;fillColor=none;align=left;verticalAlign=top;spacingLeft=4;spacingRight=4;overflow=hidden;rotatable=0;points=[[0,0.5],[1,0.5]];portConstraint=eastwest;whiteSpace=wrap;html=1;" vertex="1" parent="kX5vgCcboWEuCoNkR2Qn-53">
          <mxGeometry y="182" width="290" height="26" as="geometry" />
        </mxCell>
        <mxCell id="kX5vgCcboWEuCoNkR2Qn-64" value="+ toJson(): string" style="text;strokeColor=none;fillColor=none;align=left;verticalAlign=top;spacingLeft=4;spacingRight=4;overflow=hidden;rotatable=0;points=[[0,0.5],[1,0.5]];portConstraint=eastwest;whiteSpace=wrap;html=1;" vertex="1" parent="kX5vgCcboWEuCoNkR2Qn-53">
          <mxGeometry y="208" width="290" height="26" as="geometry" />
        </mxCell>
        <mxCell id="kX5vgCcboWEuCoNkR2Qn-65" value="Playlist" style="swimlane;fontStyle=1;align=center;verticalAlign=top;childLayout=stackLayout;horizontal=1;startSize=26;horizontalStack=0;resizeParent=1;resizeParentMax=0;resizeLast=0;collapsible=1;marginBottom=0;whiteSpace=wrap;html=1;" vertex="1" parent="1">
          <mxGeometry x="60" y="1375" width="290" height="312" as="geometry" />
        </mxCell>
        <mxCell id="kX5vgCcboWEuCoNkR2Qn-66" value="- id: int" style="text;strokeColor=none;fillColor=none;align=left;verticalAlign=top;spacingLeft=4;spacingRight=4;overflow=hidden;rotatable=0;points=[[0,0.5],[1,0.5]];portConstraint=eastwest;whiteSpace=wrap;html=1;" vertex="1" parent="kX5vgCcboWEuCoNkR2Qn-65">
          <mxGeometry y="26" width="290" height="26" as="geometry" />
        </mxCell>
        <mxCell id="kX5vgCcboWEuCoNkR2Qn-67" value="- titre: string" style="text;strokeColor=none;fillColor=none;align=left;verticalAlign=top;spacingLeft=4;spacingRight=4;overflow=hidden;rotatable=0;points=[[0,0.5],[1,0.5]];portConstraint=eastwest;whiteSpace=wrap;html=1;" vertex="1" parent="kX5vgCcboWEuCoNkR2Qn-65">
          <mxGeometry y="52" width="290" height="26" as="geometry" />
        </mxCell>
        <mxCell id="kX5vgCcboWEuCoNkR2Qn-75" value="- idUtilisateur: int" style="text;strokeColor=none;fillColor=none;align=left;verticalAlign=top;spacingLeft=4;spacingRight=4;overflow=hidden;rotatable=0;points=[[0,0.5],[1,0.5]];portConstraint=eastwest;whiteSpace=wrap;html=1;" vertex="1" parent="kX5vgCcboWEuCoNkR2Qn-65">
          <mxGeometry y="78" width="290" height="26" as="geometry" />
        </mxCell>
        <mxCell id="kX5vgCcboWEuCoNkR2Qn-68" value="" style="line;strokeWidth=1;fillColor=none;align=left;verticalAlign=middle;spacingTop=-1;spacingLeft=3;spacingRight=3;rotatable=0;labelPosition=right;points=[];portConstraint=eastwest;strokeColor=inherit;" vertex="1" parent="kX5vgCcboWEuCoNkR2Qn-65">
          <mxGeometry y="104" width="290" height="8" as="geometry" />
        </mxCell>
        <mxCell id="kX5vgCcboWEuCoNkR2Qn-69" value="+ __construct(id: int, name: string, idUtilisateur: int)" style="text;strokeColor=none;fillColor=none;align=left;verticalAlign=top;spacingLeft=4;spacingRight=4;overflow=hidden;rotatable=0;points=[[0,0.5],[1,0.5]];portConstraint=eastwest;whiteSpace=wrap;html=1;" vertex="1" parent="kX5vgCcboWEuCoNkR2Qn-65">
          <mxGeometry y="112" width="290" height="18" as="geometry" />
        </mxCell>
        <mxCell id="kX5vgCcboWEuCoNkR2Qn-70" value="+ getId(): int" style="text;strokeColor=none;fillColor=none;align=left;verticalAlign=top;spacingLeft=4;spacingRight=4;overflow=hidden;rotatable=0;points=[[0,0.5],[1,0.5]];portConstraint=eastwest;whiteSpace=wrap;html=1;" vertex="1" parent="kX5vgCcboWEuCoNkR2Qn-65">
          <mxGeometry y="130" width="290" height="26" as="geometry" />
        </mxCell>
        <mxCell id="kX5vgCcboWEuCoNkR2Qn-71" value="+ getTitre(): string" style="text;strokeColor=none;fillColor=none;align=left;verticalAlign=top;spacingLeft=4;spacingRight=4;overflow=hidden;rotatable=0;points=[[0,0.5],[1,0.5]];portConstraint=eastwest;whiteSpace=wrap;html=1;" vertex="1" parent="kX5vgCcboWEuCoNkR2Qn-65">
          <mxGeometry y="156" width="290" height="26" as="geometry" />
        </mxCell>
        <mxCell id="kX5vgCcboWEuCoNkR2Qn-76" value="+ getIdUtilisateur(): int" style="text;strokeColor=none;fillColor=none;align=left;verticalAlign=top;spacingLeft=4;spacingRight=4;overflow=hidden;rotatable=0;points=[[0,0.5],[1,0.5]];portConstraint=eastwest;whiteSpace=wrap;html=1;" vertex="1" parent="kX5vgCcboWEuCoNkR2Qn-65">
          <mxGeometry y="182" width="290" height="26" as="geometry" />
        </mxCell>
        <mxCell id="kX5vgCcboWEuCoNkR2Qn-72" value="+ setId(id: int): void" style="text;strokeColor=none;fillColor=none;align=left;verticalAlign=top;spacingLeft=4;spacingRight=4;overflow=hidden;rotatable=0;points=[[0,0.5],[1,0.5]];portConstraint=eastwest;whiteSpace=wrap;html=1;" vertex="1" parent="kX5vgCcboWEuCoNkR2Qn-65">
          <mxGeometry y="208" width="290" height="26" as="geometry" />
        </mxCell>
        <mxCell id="kX5vgCcboWEuCoNkR2Qn-73" value="+ setNom(titre:&amp;nbsp;string):void" style="text;strokeColor=none;fillColor=none;align=left;verticalAlign=top;spacingLeft=4;spacingRight=4;overflow=hidden;rotatable=0;points=[[0,0.5],[1,0.5]];portConstraint=eastwest;whiteSpace=wrap;html=1;" vertex="1" parent="kX5vgCcboWEuCoNkR2Qn-65">
          <mxGeometry y="234" width="290" height="26" as="geometry" />
        </mxCell>
        <mxCell id="kX5vgCcboWEuCoNkR2Qn-78" value="+ setIdUtilisateur(id: int): void" style="text;strokeColor=none;fillColor=none;align=left;verticalAlign=top;spacingLeft=4;spacingRight=4;overflow=hidden;rotatable=0;points=[[0,0.5],[1,0.5]];portConstraint=eastwest;whiteSpace=wrap;html=1;" vertex="1" parent="kX5vgCcboWEuCoNkR2Qn-65">
          <mxGeometry y="260" width="290" height="26" as="geometry" />
        </mxCell>
        <mxCell id="kX5vgCcboWEuCoNkR2Qn-74" value="+ toJson(): string" style="text;strokeColor=none;fillColor=none;align=left;verticalAlign=top;spacingLeft=4;spacingRight=4;overflow=hidden;rotatable=0;points=[[0,0.5],[1,0.5]];portConstraint=eastwest;whiteSpace=wrap;html=1;" vertex="1" parent="kX5vgCcboWEuCoNkR2Qn-65">
          <mxGeometry y="286" width="290" height="26" as="geometry" />
        </mxCell>
        <mxCell id="kX5vgCcboWEuCoNkR2Qn-80" value="" style="endArrow=none;html=1;rounded=0;entryX=0.471;entryY=1.056;entryDx=0;entryDy=0;exitX=0.5;exitY=0;exitDx=0;exitDy=0;entryPerimeter=0;" edge="1" parent="1" source="kX5vgCcboWEuCoNkR2Qn-6" target="kX5vgCcboWEuCoNkR2Qn-64">
          <mxGeometry width="50" height="50" relative="1" as="geometry">
            <mxPoint x="180" y="655" as="sourcePoint" />
            <mxPoint x="400" y="655" as="targetPoint" />
          </mxGeometry>
        </mxCell>
        <mxCell id="kX5vgCcboWEuCoNkR2Qn-81" value="*" style="rounded=1;whiteSpace=wrap;html=1;" vertex="1" parent="1">
          <mxGeometry x="220" y="575" width="60" height="23" as="geometry" />
        </mxCell>
        <mxCell id="kX5vgCcboWEuCoNkR2Qn-82" value="- genres" style="rounded=1;whiteSpace=wrap;html=1;" vertex="1" parent="1">
          <mxGeometry x="130" y="575" width="60" height="23" as="geometry" />
        </mxCell>
        <mxCell id="kX5vgCcboWEuCoNkR2Qn-83" value="Son" style="swimlane;fontStyle=1;align=center;verticalAlign=top;childLayout=stackLayout;horizontal=1;startSize=26;horizontalStack=0;resizeParent=1;resizeParentMax=0;resizeLast=0;collapsible=1;marginBottom=0;whiteSpace=wrap;html=1;" vertex="1" parent="1">
          <mxGeometry x="570" y="1045" width="290" height="506" as="geometry" />
        </mxCell>
        <mxCell id="kX5vgCcboWEuCoNkR2Qn-84" value="- id: int" style="text;strokeColor=none;fillColor=none;align=left;verticalAlign=top;spacingLeft=4;spacingRight=4;overflow=hidden;rotatable=0;points=[[0,0.5],[1,0.5]];portConstraint=eastwest;whiteSpace=wrap;html=1;" vertex="1" parent="kX5vgCcboWEuCoNkR2Qn-83">
          <mxGeometry y="26" width="290" height="26" as="geometry" />
        </mxCell>
        <mxCell id="kX5vgCcboWEuCoNkR2Qn-85" value="- titre: string" style="text;strokeColor=none;fillColor=none;align=left;verticalAlign=top;spacingLeft=4;spacingRight=4;overflow=hidden;rotatable=0;points=[[0,0.5],[1,0.5]];portConstraint=eastwest;whiteSpace=wrap;html=1;" vertex="1" parent="kX5vgCcboWEuCoNkR2Qn-83">
          <mxGeometry y="52" width="290" height="26" as="geometry" />
        </mxCell>
        <mxCell id="kX5vgCcboWEuCoNkR2Qn-86" value="- duree: float" style="text;strokeColor=none;fillColor=none;align=left;verticalAlign=top;spacingLeft=4;spacingRight=4;overflow=hidden;rotatable=0;points=[[0,0.5],[1,0.5]];portConstraint=eastwest;whiteSpace=wrap;html=1;" vertex="1" parent="kX5vgCcboWEuCoNkR2Qn-83">
          <mxGeometry y="78" width="290" height="26" as="geometry" />
        </mxCell>
        <mxCell id="kX5vgCcboWEuCoNkR2Qn-99" value="- mp3: blob" style="text;strokeColor=none;fillColor=none;align=left;verticalAlign=top;spacingLeft=4;spacingRight=4;overflow=hidden;rotatable=0;points=[[0,0.5],[1,0.5]];portConstraint=eastwest;whiteSpace=wrap;html=1;" vertex="1" parent="kX5vgCcboWEuCoNkR2Qn-83">
          <mxGeometry y="104" width="290" height="26" as="geometry" />
        </mxCell>
        <mxCell id="kX5vgCcboWEuCoNkR2Qn-98" value="+ idAlbum: int" style="text;strokeColor=none;fillColor=none;align=left;verticalAlign=top;spacingLeft=4;spacingRight=4;overflow=hidden;rotatable=0;points=[[0,0.5],[1,0.5]];portConstraint=eastwest;whiteSpace=wrap;html=1;" vertex="1" parent="kX5vgCcboWEuCoNkR2Qn-83">
          <mxGeometry y="130" width="290" height="26" as="geometry" />
        </mxCell>
        <mxCell id="kX5vgCcboWEuCoNkR2Qn-97" value="+ nbStream : int" style="text;strokeColor=none;fillColor=none;align=left;verticalAlign=top;spacingLeft=4;spacingRight=4;overflow=hidden;rotatable=0;points=[[0,0.5],[1,0.5]];portConstraint=eastwest;whiteSpace=wrap;html=1;" vertex="1" parent="kX5vgCcboWEuCoNkR2Qn-83">
          <mxGeometry y="156" width="290" height="26" as="geometry" />
        </mxCell>
        <mxCell id="kX5vgCcboWEuCoNkR2Qn-87" value="" style="line;strokeWidth=1;fillColor=none;align=left;verticalAlign=middle;spacingTop=-1;spacingLeft=3;spacingRight=3;rotatable=0;labelPosition=right;points=[];portConstraint=eastwest;strokeColor=inherit;" vertex="1" parent="kX5vgCcboWEuCoNkR2Qn-83">
          <mxGeometry y="182" width="290" height="8" as="geometry" />
        </mxCell>
        <mxCell id="kX5vgCcboWEuCoNkR2Qn-88" value="+ __construct(id: int, titre: string, duree: float, idAlbum: int, nbStream: int)" style="text;strokeColor=none;fillColor=none;align=left;verticalAlign=top;spacingLeft=4;spacingRight=4;overflow=hidden;rotatable=0;points=[[0,0.5],[1,0.5]];portConstraint=eastwest;whiteSpace=wrap;html=1;" vertex="1" parent="kX5vgCcboWEuCoNkR2Qn-83">
          <mxGeometry y="190" width="290" height="30" as="geometry" />
        </mxCell>
        <mxCell id="kX5vgCcboWEuCoNkR2Qn-89" value="+ getId(): int" style="text;strokeColor=none;fillColor=none;align=left;verticalAlign=top;spacingLeft=4;spacingRight=4;overflow=hidden;rotatable=0;points=[[0,0.5],[1,0.5]];portConstraint=eastwest;whiteSpace=wrap;html=1;" vertex="1" parent="kX5vgCcboWEuCoNkR2Qn-83">
          <mxGeometry y="220" width="290" height="26" as="geometry" />
        </mxCell>
        <mxCell id="kX5vgCcboWEuCoNkR2Qn-90" value="+ getTitre(): string" style="text;strokeColor=none;fillColor=none;align=left;verticalAlign=top;spacingLeft=4;spacingRight=4;overflow=hidden;rotatable=0;points=[[0,0.5],[1,0.5]];portConstraint=eastwest;whiteSpace=wrap;html=1;" vertex="1" parent="kX5vgCcboWEuCoNkR2Qn-83">
          <mxGeometry y="246" width="290" height="26" as="geometry" />
        </mxCell>
        <mxCell id="kX5vgCcboWEuCoNkR2Qn-91" value="+ getDuree(): float" style="text;strokeColor=none;fillColor=none;align=left;verticalAlign=top;spacingLeft=4;spacingRight=4;overflow=hidden;rotatable=0;points=[[0,0.5],[1,0.5]];portConstraint=eastwest;whiteSpace=wrap;html=1;" vertex="1" parent="kX5vgCcboWEuCoNkR2Qn-83">
          <mxGeometry y="272" width="290" height="26" as="geometry" />
        </mxCell>
        <mxCell id="kX5vgCcboWEuCoNkR2Qn-92" value="+ getMp3(): blob" style="text;strokeColor=none;fillColor=none;align=left;verticalAlign=top;spacingLeft=4;spacingRight=4;overflow=hidden;rotatable=0;points=[[0,0.5],[1,0.5]];portConstraint=eastwest;whiteSpace=wrap;html=1;" vertex="1" parent="kX5vgCcboWEuCoNkR2Qn-83">
          <mxGeometry y="298" width="290" height="26" as="geometry" />
        </mxCell>
        <mxCell id="kX5vgCcboWEuCoNkR2Qn-93" value="+ getNbStream(): int" style="text;strokeColor=none;fillColor=none;align=left;verticalAlign=top;spacingLeft=4;spacingRight=4;overflow=hidden;rotatable=0;points=[[0,0.5],[1,0.5]];portConstraint=eastwest;whiteSpace=wrap;html=1;" vertex="1" parent="kX5vgCcboWEuCoNkR2Qn-83">
          <mxGeometry y="324" width="290" height="26" as="geometry" />
        </mxCell>
        <mxCell id="kX5vgCcboWEuCoNkR2Qn-94" value="+ setTitre(titre: int): void" style="text;strokeColor=none;fillColor=none;align=left;verticalAlign=top;spacingLeft=4;spacingRight=4;overflow=hidden;rotatable=0;points=[[0,0.5],[1,0.5]];portConstraint=eastwest;whiteSpace=wrap;html=1;" vertex="1" parent="kX5vgCcboWEuCoNkR2Qn-83">
          <mxGeometry y="350" width="290" height="26" as="geometry" />
        </mxCell>
        <mxCell id="kX5vgCcboWEuCoNkR2Qn-106" value="+ setDuree(duree: float): void" style="text;strokeColor=none;fillColor=none;align=left;verticalAlign=top;spacingLeft=4;spacingRight=4;overflow=hidden;rotatable=0;points=[[0,0.5],[1,0.5]];portConstraint=eastwest;whiteSpace=wrap;html=1;" vertex="1" parent="kX5vgCcboWEuCoNkR2Qn-83">
          <mxGeometry y="376" width="290" height="26" as="geometry" />
        </mxCell>
        <mxCell id="kX5vgCcboWEuCoNkR2Qn-105" value="+ setMp3(mp3: blob): void" style="text;strokeColor=none;fillColor=none;align=left;verticalAlign=top;spacingLeft=4;spacingRight=4;overflow=hidden;rotatable=0;points=[[0,0.5],[1,0.5]];portConstraint=eastwest;whiteSpace=wrap;html=1;" vertex="1" parent="kX5vgCcboWEuCoNkR2Qn-83">
          <mxGeometry y="402" width="290" height="26" as="geometry" />
        </mxCell>
        <mxCell id="kX5vgCcboWEuCoNkR2Qn-104" value="&lt;span style=&quot;color: rgb(0, 0, 0); font-family: Helvetica; font-size: 12px; font-style: normal; font-variant-ligatures: normal; font-variant-caps: normal; font-weight: 400; letter-spacing: normal; orphans: 2; text-align: left; text-indent: 0px; text-transform: none; widows: 2; word-spacing: 0px; -webkit-text-stroke-width: 0px; background-color: rgb(251, 251, 251); text-decoration-thickness: initial; text-decoration-style: initial; text-decoration-color: initial; float: none; display: inline !important;&quot;&gt;+ setIdAlbum(id: int): void&lt;/span&gt;" style="text;strokeColor=none;fillColor=none;align=left;verticalAlign=top;spacingLeft=4;spacingRight=4;overflow=hidden;rotatable=0;points=[[0,0.5],[1,0.5]];portConstraint=eastwest;whiteSpace=wrap;html=1;" vertex="1" parent="kX5vgCcboWEuCoNkR2Qn-83">
          <mxGeometry y="428" width="290" height="26" as="geometry" />
        </mxCell>
        <mxCell id="kX5vgCcboWEuCoNkR2Qn-103" value="+ setAlbum(album: Album): void" style="text;strokeColor=none;fillColor=none;align=left;verticalAlign=top;spacingLeft=4;spacingRight=4;overflow=hidden;rotatable=0;points=[[0,0.5],[1,0.5]];portConstraint=eastwest;whiteSpace=wrap;html=1;" vertex="1" parent="kX5vgCcboWEuCoNkR2Qn-83">
          <mxGeometry y="454" width="290" height="26" as="geometry" />
        </mxCell>
        <mxCell id="kX5vgCcboWEuCoNkR2Qn-102" value="+ toJson(): string" style="text;strokeColor=none;fillColor=none;align=left;verticalAlign=top;spacingLeft=4;spacingRight=4;overflow=hidden;rotatable=0;points=[[0,0.5],[1,0.5]];portConstraint=eastwest;whiteSpace=wrap;html=1;" vertex="1" parent="kX5vgCcboWEuCoNkR2Qn-83">
          <mxGeometry y="480" width="290" height="26" as="geometry" />
        </mxCell>
        <mxCell id="kX5vgCcboWEuCoNkR2Qn-108" value="" style="endArrow=none;html=1;rounded=0;entryX=-0.001;entryY=0.746;entryDx=0;entryDy=0;exitX=1;exitY=0.5;exitDx=0;exitDy=0;entryPerimeter=0;" edge="1" parent="1" source="kX5vgCcboWEuCoNkR2Qn-23" target="kX5vgCcboWEuCoNkR2Qn-86">
          <mxGeometry width="50" height="50" relative="1" as="geometry">
            <mxPoint x="380" y="1045" as="sourcePoint" />
            <mxPoint x="600" y="1045" as="targetPoint" />
          </mxGeometry>
        </mxCell>
        <mxCell id="kX5vgCcboWEuCoNkR2Qn-109" value="- album" style="rounded=1;whiteSpace=wrap;html=1;" vertex="1" parent="1">
          <mxGeometry x="362" y="1106.5" width="60" height="23" as="geometry" />
        </mxCell>
        <mxCell id="kX5vgCcboWEuCoNkR2Qn-110" value="1" style="rounded=1;whiteSpace=wrap;html=1;" vertex="1" parent="1">
          <mxGeometry x="362" y="1155" width="60" height="23" as="geometry" />
        </mxCell>
        <mxCell id="kX5vgCcboWEuCoNkR2Qn-111" value="" style="endArrow=none;html=1;rounded=0;entryX=-0.001;entryY=0.746;entryDx=0;entryDy=0;exitX=1;exitY=0.5;exitDx=0;exitDy=0;entryPerimeter=0;" edge="1" parent="1">
          <mxGeometry width="50" height="50" relative="1" as="geometry">
            <mxPoint x="350" y="1460" as="sourcePoint" />
            <mxPoint x="570" y="1462" as="targetPoint" />
          </mxGeometry>
        </mxCell>
        <mxCell id="kX5vgCcboWEuCoNkR2Qn-112" value="- songs" style="rounded=1;whiteSpace=wrap;html=1;" vertex="1" parent="1">
          <mxGeometry x="492" y="1426.5" width="60" height="23" as="geometry" />
        </mxCell>
        <mxCell id="kX5vgCcboWEuCoNkR2Qn-113" value="*" style="rounded=1;whiteSpace=wrap;html=1;" vertex="1" parent="1">
          <mxGeometry x="492" y="1475" width="60" height="23" as="geometry" />
        </mxCell>
        <mxCell id="kX5vgCcboWEuCoNkR2Qn-114" value="Utilisateur" style="swimlane;fontStyle=1;align=center;verticalAlign=top;childLayout=stackLayout;horizontal=1;startSize=26;horizontalStack=0;resizeParent=1;resizeParentMax=0;resizeLast=0;collapsible=1;marginBottom=0;whiteSpace=wrap;html=1;" vertex="1" parent="1">
          <mxGeometry x="570" y="1595" width="290" height="636" as="geometry" />
        </mxCell>
        <mxCell id="kX5vgCcboWEuCoNkR2Qn-115" value="- id: int" style="text;strokeColor=none;fillColor=none;align=left;verticalAlign=top;spacingLeft=4;spacingRight=4;overflow=hidden;rotatable=0;points=[[0,0.5],[1,0.5]];portConstraint=eastwest;whiteSpace=wrap;html=1;" vertex="1" parent="kX5vgCcboWEuCoNkR2Qn-114">
          <mxGeometry y="26" width="290" height="26" as="geometry" />
        </mxCell>
        <mxCell id="kX5vgCcboWEuCoNkR2Qn-116" value="- nom: string" style="text;strokeColor=none;fillColor=none;align=left;verticalAlign=top;spacingLeft=4;spacingRight=4;overflow=hidden;rotatable=0;points=[[0,0.5],[1,0.5]];portConstraint=eastwest;whiteSpace=wrap;html=1;" vertex="1" parent="kX5vgCcboWEuCoNkR2Qn-114">
          <mxGeometry y="52" width="290" height="26" as="geometry" />
        </mxCell>
        <mxCell id="kX5vgCcboWEuCoNkR2Qn-117" value="- prenom: string" style="text;strokeColor=none;fillColor=none;align=left;verticalAlign=top;spacingLeft=4;spacingRight=4;overflow=hidden;rotatable=0;points=[[0,0.5],[1,0.5]];portConstraint=eastwest;whiteSpace=wrap;html=1;" vertex="1" parent="kX5vgCcboWEuCoNkR2Qn-114">
          <mxGeometry y="78" width="290" height="26" as="geometry" />
        </mxCell>
        <mxCell id="kX5vgCcboWEuCoNkR2Qn-118" value="- pseudo: string" style="text;strokeColor=none;fillColor=none;align=left;verticalAlign=top;spacingLeft=4;spacingRight=4;overflow=hidden;rotatable=0;points=[[0,0.5],[1,0.5]];portConstraint=eastwest;whiteSpace=wrap;html=1;" vertex="1" parent="kX5vgCcboWEuCoNkR2Qn-114">
          <mxGeometry y="104" width="290" height="26" as="geometry" />
        </mxCell>
        <mxCell id="kX5vgCcboWEuCoNkR2Qn-119" value="+ mail: string" style="text;strokeColor=none;fillColor=none;align=left;verticalAlign=top;spacingLeft=4;spacingRight=4;overflow=hidden;rotatable=0;points=[[0,0.5],[1,0.5]];portConstraint=eastwest;whiteSpace=wrap;html=1;" vertex="1" parent="kX5vgCcboWEuCoNkR2Qn-114">
          <mxGeometry y="130" width="290" height="26" as="geometry" />
        </mxCell>
        <mxCell id="kX5vgCcboWEuCoNkR2Qn-120" value="+ mdp : string" style="text;strokeColor=none;fillColor=none;align=left;verticalAlign=top;spacingLeft=4;spacingRight=4;overflow=hidden;rotatable=0;points=[[0,0.5],[1,0.5]];portConstraint=eastwest;whiteSpace=wrap;html=1;" vertex="1" parent="kX5vgCcboWEuCoNkR2Qn-114">
          <mxGeometry y="156" width="290" height="26" as="geometry" />
        </mxCell>
        <mxCell id="kX5vgCcboWEuCoNkR2Qn-134" value="+ statut: string" style="text;strokeColor=none;fillColor=none;align=left;verticalAlign=top;spacingLeft=4;spacingRight=4;overflow=hidden;rotatable=0;points=[[0,0.5],[1,0.5]];portConstraint=eastwest;whiteSpace=wrap;html=1;" vertex="1" parent="kX5vgCcboWEuCoNkR2Qn-114">
          <mxGeometry y="182" width="290" height="26" as="geometry" />
        </mxCell>
        <mxCell id="kX5vgCcboWEuCoNkR2Qn-121" value="" style="line;strokeWidth=1;fillColor=none;align=left;verticalAlign=middle;spacingTop=-1;spacingLeft=3;spacingRight=3;rotatable=0;labelPosition=right;points=[];portConstraint=eastwest;strokeColor=inherit;" vertex="1" parent="kX5vgCcboWEuCoNkR2Qn-114">
          <mxGeometry y="208" width="290" height="8" as="geometry" />
        </mxCell>
        <mxCell id="kX5vgCcboWEuCoNkR2Qn-122" value="+ __construct(id: int, nom: string, prenom: string, email: string, mdp: string)" style="text;strokeColor=none;fillColor=none;align=left;verticalAlign=top;spacingLeft=4;spacingRight=4;overflow=hidden;rotatable=0;points=[[0,0.5],[1,0.5]];portConstraint=eastwest;whiteSpace=wrap;html=1;" vertex="1" parent="kX5vgCcboWEuCoNkR2Qn-114">
          <mxGeometry y="216" width="290" height="30" as="geometry" />
        </mxCell>
        <mxCell id="kX5vgCcboWEuCoNkR2Qn-123" value="+ getId(): int" style="text;strokeColor=none;fillColor=none;align=left;verticalAlign=top;spacingLeft=4;spacingRight=4;overflow=hidden;rotatable=0;points=[[0,0.5],[1,0.5]];portConstraint=eastwest;whiteSpace=wrap;html=1;" vertex="1" parent="kX5vgCcboWEuCoNkR2Qn-114">
          <mxGeometry y="246" width="290" height="26" as="geometry" />
        </mxCell>
        <mxCell id="kX5vgCcboWEuCoNkR2Qn-124" value="+ getNom(): string" style="text;strokeColor=none;fillColor=none;align=left;verticalAlign=top;spacingLeft=4;spacingRight=4;overflow=hidden;rotatable=0;points=[[0,0.5],[1,0.5]];portConstraint=eastwest;whiteSpace=wrap;html=1;" vertex="1" parent="kX5vgCcboWEuCoNkR2Qn-114">
          <mxGeometry y="272" width="290" height="26" as="geometry" />
        </mxCell>
        <mxCell id="kX5vgCcboWEuCoNkR2Qn-125" value="+ getPrenom(): string" style="text;strokeColor=none;fillColor=none;align=left;verticalAlign=top;spacingLeft=4;spacingRight=4;overflow=hidden;rotatable=0;points=[[0,0.5],[1,0.5]];portConstraint=eastwest;whiteSpace=wrap;html=1;" vertex="1" parent="kX5vgCcboWEuCoNkR2Qn-114">
          <mxGeometry y="298" width="290" height="26" as="geometry" />
        </mxCell>
        <mxCell id="kX5vgCcboWEuCoNkR2Qn-126" value="+ getPseudo(): string" style="text;strokeColor=none;fillColor=none;align=left;verticalAlign=top;spacingLeft=4;spacingRight=4;overflow=hidden;rotatable=0;points=[[0,0.5],[1,0.5]];portConstraint=eastwest;whiteSpace=wrap;html=1;" vertex="1" parent="kX5vgCcboWEuCoNkR2Qn-114">
          <mxGeometry y="324" width="290" height="26" as="geometry" />
        </mxCell>
        <mxCell id="kX5vgCcboWEuCoNkR2Qn-127" value="+ getEmail(): string" style="text;strokeColor=none;fillColor=none;align=left;verticalAlign=top;spacingLeft=4;spacingRight=4;overflow=hidden;rotatable=0;points=[[0,0.5],[1,0.5]];portConstraint=eastwest;whiteSpace=wrap;html=1;" vertex="1" parent="kX5vgCcboWEuCoNkR2Qn-114">
          <mxGeometry y="350" width="290" height="26" as="geometry" />
        </mxCell>
        <mxCell id="kX5vgCcboWEuCoNkR2Qn-128" value="+ getMdp(): string" style="text;strokeColor=none;fillColor=none;align=left;verticalAlign=top;spacingLeft=4;spacingRight=4;overflow=hidden;rotatable=0;points=[[0,0.5],[1,0.5]];portConstraint=eastwest;whiteSpace=wrap;html=1;" vertex="1" parent="kX5vgCcboWEuCoNkR2Qn-114">
          <mxGeometry y="376" width="290" height="26" as="geometry" />
        </mxCell>
        <mxCell id="kX5vgCcboWEuCoNkR2Qn-129" value="+ getStatut(): string" style="text;strokeColor=none;fillColor=none;align=left;verticalAlign=top;spacingLeft=4;spacingRight=4;overflow=hidden;rotatable=0;points=[[0,0.5],[1,0.5]];portConstraint=eastwest;whiteSpace=wrap;html=1;" vertex="1" parent="kX5vgCcboWEuCoNkR2Qn-114">
          <mxGeometry y="402" width="290" height="26" as="geometry" />
        </mxCell>
        <mxCell id="kX5vgCcboWEuCoNkR2Qn-130" value="+ setid(id: int): void" style="text;strokeColor=none;fillColor=none;align=left;verticalAlign=top;spacingLeft=4;spacingRight=4;overflow=hidden;rotatable=0;points=[[0,0.5],[1,0.5]];portConstraint=eastwest;whiteSpace=wrap;html=1;" vertex="1" parent="kX5vgCcboWEuCoNkR2Qn-114">
          <mxGeometry y="428" width="290" height="26" as="geometry" />
        </mxCell>
        <mxCell id="kX5vgCcboWEuCoNkR2Qn-131" value="&lt;span style=&quot;color: rgb(0, 0, 0); font-family: Helvetica; font-size: 12px; font-style: normal; font-variant-ligatures: normal; font-variant-caps: normal; font-weight: 400; letter-spacing: normal; orphans: 2; text-align: left; text-indent: 0px; text-transform: none; widows: 2; word-spacing: 0px; -webkit-text-stroke-width: 0px; background-color: rgb(251, 251, 251); text-decoration-thickness: initial; text-decoration-style: initial; text-decoration-color: initial; float: none; display: inline !important;&quot;&gt;+ setNom(nom: string): void&lt;/span&gt;" style="text;strokeColor=none;fillColor=none;align=left;verticalAlign=top;spacingLeft=4;spacingRight=4;overflow=hidden;rotatable=0;points=[[0,0.5],[1,0.5]];portConstraint=eastwest;whiteSpace=wrap;html=1;" vertex="1" parent="kX5vgCcboWEuCoNkR2Qn-114">
          <mxGeometry y="454" width="290" height="26" as="geometry" />
        </mxCell>
        <mxCell id="kX5vgCcboWEuCoNkR2Qn-132" value="+ setPrenom(prenom: string): void" style="text;strokeColor=none;fillColor=none;align=left;verticalAlign=top;spacingLeft=4;spacingRight=4;overflow=hidden;rotatable=0;points=[[0,0.5],[1,0.5]];portConstraint=eastwest;whiteSpace=wrap;html=1;" vertex="1" parent="kX5vgCcboWEuCoNkR2Qn-114">
          <mxGeometry y="480" width="290" height="26" as="geometry" />
        </mxCell>
        <mxCell id="kX5vgCcboWEuCoNkR2Qn-133" value="+ setPseudo(pseudo: string): void" style="text;strokeColor=none;fillColor=none;align=left;verticalAlign=top;spacingLeft=4;spacingRight=4;overflow=hidden;rotatable=0;points=[[0,0.5],[1,0.5]];portConstraint=eastwest;whiteSpace=wrap;html=1;" vertex="1" parent="kX5vgCcboWEuCoNkR2Qn-114">
          <mxGeometry y="506" width="290" height="26" as="geometry" />
        </mxCell>
        <mxCell id="kX5vgCcboWEuCoNkR2Qn-140" value="&lt;span style=&quot;color: rgb(0, 0, 0); font-family: Helvetica; font-size: 12px; font-style: normal; font-variant-ligatures: normal; font-variant-caps: normal; font-weight: 400; letter-spacing: normal; orphans: 2; text-align: left; text-indent: 0px; text-transform: none; widows: 2; word-spacing: 0px; -webkit-text-stroke-width: 0px; background-color: rgb(251, 251, 251); text-decoration-thickness: initial; text-decoration-style: initial; text-decoration-color: initial; float: none; display: inline !important;&quot;&gt;+ setEmail(mail: string): void&lt;/span&gt;" style="text;strokeColor=none;fillColor=none;align=left;verticalAlign=top;spacingLeft=4;spacingRight=4;overflow=hidden;rotatable=0;points=[[0,0.5],[1,0.5]];portConstraint=eastwest;whiteSpace=wrap;html=1;" vertex="1" parent="kX5vgCcboWEuCoNkR2Qn-114">
          <mxGeometry y="532" width="290" height="26" as="geometry" />
        </mxCell>
        <mxCell id="kX5vgCcboWEuCoNkR2Qn-139" value="&lt;span style=&quot;color: rgb(0, 0, 0); font-family: Helvetica; font-size: 12px; font-style: normal; font-variant-ligatures: normal; font-variant-caps: normal; font-weight: 400; letter-spacing: normal; orphans: 2; text-align: left; text-indent: 0px; text-transform: none; widows: 2; word-spacing: 0px; -webkit-text-stroke-width: 0px; background-color: rgb(251, 251, 251); text-decoration-thickness: initial; text-decoration-style: initial; text-decoration-color: initial; float: none; display: inline !important;&quot;&gt;+ setMdp(mdp: string): void&lt;/span&gt;" style="text;strokeColor=none;fillColor=none;align=left;verticalAlign=top;spacingLeft=4;spacingRight=4;overflow=hidden;rotatable=0;points=[[0,0.5],[1,0.5]];portConstraint=eastwest;whiteSpace=wrap;html=1;" vertex="1" parent="kX5vgCcboWEuCoNkR2Qn-114">
          <mxGeometry y="558" width="290" height="26" as="geometry" />
        </mxCell>
        <mxCell id="kX5vgCcboWEuCoNkR2Qn-138" value="&lt;span style=&quot;color: rgb(0, 0, 0); font-family: Helvetica; font-size: 12px; font-style: normal; font-variant-ligatures: normal; font-variant-caps: normal; font-weight: 400; letter-spacing: normal; orphans: 2; text-align: left; text-indent: 0px; text-transform: none; widows: 2; word-spacing: 0px; -webkit-text-stroke-width: 0px; background-color: rgb(251, 251, 251); text-decoration-thickness: initial; text-decoration-style: initial; text-decoration-color: initial; float: none; display: inline !important;&quot;&gt;+ setStatut(statut: string): void&lt;/span&gt;" style="text;strokeColor=none;fillColor=none;align=left;verticalAlign=top;spacingLeft=4;spacingRight=4;overflow=hidden;rotatable=0;points=[[0,0.5],[1,0.5]];portConstraint=eastwest;whiteSpace=wrap;html=1;" vertex="1" parent="kX5vgCcboWEuCoNkR2Qn-114">
          <mxGeometry y="584" width="290" height="26" as="geometry" />
        </mxCell>
        <mxCell id="kX5vgCcboWEuCoNkR2Qn-137" value="+ toJson(): string" style="text;strokeColor=none;fillColor=none;align=left;verticalAlign=top;spacingLeft=4;spacingRight=4;overflow=hidden;rotatable=0;points=[[0,0.5],[1,0.5]];portConstraint=eastwest;whiteSpace=wrap;html=1;" vertex="1" parent="kX5vgCcboWEuCoNkR2Qn-114">
          <mxGeometry y="610" width="290" height="26" as="geometry" />
        </mxCell>
        <mxCell id="kX5vgCcboWEuCoNkR2Qn-141" value="" style="endArrow=none;html=1;rounded=0;entryX=-0.001;entryY=0.746;entryDx=0;entryDy=0;exitX=1;exitY=0.5;exitDx=0;exitDy=0;entryPerimeter=0;" edge="1" parent="1">
          <mxGeometry width="50" height="50" relative="1" as="geometry">
            <mxPoint x="350" y="1640" as="sourcePoint" />
            <mxPoint x="570" y="1642" as="targetPoint" />
          </mxGeometry>
        </mxCell>
        <mxCell id="kX5vgCcboWEuCoNkR2Qn-142" value="- user" style="rounded=1;whiteSpace=wrap;html=1;" vertex="1" parent="1">
          <mxGeometry x="492" y="1606.5" width="60" height="23" as="geometry" />
        </mxCell>
        <mxCell id="kX5vgCcboWEuCoNkR2Qn-143" value="1" style="rounded=1;whiteSpace=wrap;html=1;" vertex="1" parent="1">
          <mxGeometry x="492" y="1655" width="60" height="23" as="geometry" />
        </mxCell>
        <mxCell id="kX5vgCcboWEuCoNkR2Qn-144" value="AlbumDB" style="swimlane;fontStyle=1;align=center;verticalAlign=top;childLayout=stackLayout;horizontal=1;startSize=26;horizontalStack=0;resizeParent=1;resizeParentMax=0;resizeLast=0;collapsible=1;marginBottom=0;whiteSpace=wrap;html=1;" vertex="1" parent="1">
          <mxGeometry x="930" y="341" width="290" height="390" as="geometry" />
        </mxCell>
        <mxCell id="kX5vgCcboWEuCoNkR2Qn-145" value="- pdo: Pdo" style="text;strokeColor=none;fillColor=none;align=left;verticalAlign=top;spacingLeft=4;spacingRight=4;overflow=hidden;rotatable=0;points=[[0,0.5],[1,0.5]];portConstraint=eastwest;whiteSpace=wrap;html=1;" vertex="1" parent="kX5vgCcboWEuCoNkR2Qn-144">
          <mxGeometry y="26" width="290" height="26" as="geometry" />
        </mxCell>
        <mxCell id="kX5vgCcboWEuCoNkR2Qn-147" value="" style="line;strokeWidth=1;fillColor=none;align=left;verticalAlign=middle;spacingTop=-1;spacingLeft=3;spacingRight=3;rotatable=0;labelPosition=right;points=[];portConstraint=eastwest;strokeColor=inherit;" vertex="1" parent="kX5vgCcboWEuCoNkR2Qn-144">
          <mxGeometry y="52" width="290" height="8" as="geometry" />
        </mxCell>
        <mxCell id="kX5vgCcboWEuCoNkR2Qn-148" value="+ __construct(pdo: Pdo)" style="text;strokeColor=none;fillColor=none;align=left;verticalAlign=top;spacingLeft=4;spacingRight=4;overflow=hidden;rotatable=0;points=[[0,0.5],[1,0.5]];portConstraint=eastwest;whiteSpace=wrap;html=1;" vertex="1" parent="kX5vgCcboWEuCoNkR2Qn-144">
          <mxGeometry y="60" width="290" height="18" as="geometry" />
        </mxCell>
        <mxCell id="kX5vgCcboWEuCoNkR2Qn-149" value="+ findAll(): array(Album)" style="text;strokeColor=none;fillColor=none;align=left;verticalAlign=top;spacingLeft=4;spacingRight=4;overflow=hidden;rotatable=0;points=[[0,0.5],[1,0.5]];portConstraint=eastwest;whiteSpace=wrap;html=1;" vertex="1" parent="kX5vgCcboWEuCoNkR2Qn-144">
          <mxGeometry y="78" width="290" height="26" as="geometry" />
        </mxCell>
        <mxCell id="kX5vgCcboWEuCoNkR2Qn-150" value="+ find(idSon: int): Album" style="text;strokeColor=none;fillColor=none;align=left;verticalAlign=top;spacingLeft=4;spacingRight=4;overflow=hidden;rotatable=0;points=[[0,0.5],[1,0.5]];portConstraint=eastwest;whiteSpace=wrap;html=1;" vertex="1" parent="kX5vgCcboWEuCoNkR2Qn-144">
          <mxGeometry y="104" width="290" height="26" as="geometry" />
        </mxCell>
        <mxCell id="kX5vgCcboWEuCoNkR2Qn-151" value="+ findAlbum(idAlbum: int): Album" style="text;strokeColor=none;fillColor=none;align=left;verticalAlign=top;spacingLeft=4;spacingRight=4;overflow=hidden;rotatable=0;points=[[0,0.5],[1,0.5]];portConstraint=eastwest;whiteSpace=wrap;html=1;" vertex="1" parent="kX5vgCcboWEuCoNkR2Qn-144">
          <mxGeometry y="130" width="290" height="26" as="geometry" />
        </mxCell>
        <mxCell id="kX5vgCcboWEuCoNkR2Qn-152" value="+ findAlbumArtist(idArtiste: int): array(Album)" style="text;strokeColor=none;fillColor=none;align=left;verticalAlign=top;spacingLeft=4;spacingRight=4;overflow=hidden;rotatable=0;points=[[0,0.5],[1,0.5]];portConstraint=eastwest;whiteSpace=wrap;html=1;" vertex="1" parent="kX5vgCcboWEuCoNkR2Qn-144">
          <mxGeometry y="156" width="290" height="26" as="geometry" />
        </mxCell>
        <mxCell id="kX5vgCcboWEuCoNkR2Qn-153" value="+ getAleaAlbums(): array(Album)" style="text;strokeColor=none;fillColor=none;align=left;verticalAlign=top;spacingLeft=4;spacingRight=4;overflow=hidden;rotatable=0;points=[[0,0.5],[1,0.5]];portConstraint=eastwest;whiteSpace=wrap;html=1;" vertex="1" parent="kX5vgCcboWEuCoNkR2Qn-144">
          <mxGeometry y="182" width="290" height="26" as="geometry" />
        </mxCell>
        <mxCell id="kX5vgCcboWEuCoNkR2Qn-160" value="+ getLastAlbums(): array(Album)" style="text;strokeColor=none;fillColor=none;align=left;verticalAlign=top;spacingLeft=4;spacingRight=4;overflow=hidden;rotatable=0;points=[[0,0.5],[1,0.5]];portConstraint=eastwest;whiteSpace=wrap;html=1;" vertex="1" parent="kX5vgCcboWEuCoNkR2Qn-144">
          <mxGeometry y="208" width="290" height="26" as="geometry" />
        </mxCell>
        <mxCell id="kX5vgCcboWEuCoNkR2Qn-159" value="+ insert(album: Album): void" style="text;strokeColor=none;fillColor=none;align=left;verticalAlign=top;spacingLeft=4;spacingRight=4;overflow=hidden;rotatable=0;points=[[0,0.5],[1,0.5]];portConstraint=eastwest;whiteSpace=wrap;html=1;" vertex="1" parent="kX5vgCcboWEuCoNkR2Qn-144">
          <mxGeometry y="234" width="290" height="26" as="geometry" />
        </mxCell>
        <mxCell id="kX5vgCcboWEuCoNkR2Qn-158" value="+ delete(idAlbum: int): void" style="text;strokeColor=none;fillColor=none;align=left;verticalAlign=top;spacingLeft=4;spacingRight=4;overflow=hidden;rotatable=0;points=[[0,0.5],[1,0.5]];portConstraint=eastwest;whiteSpace=wrap;html=1;" vertex="1" parent="kX5vgCcboWEuCoNkR2Qn-144">
          <mxGeometry y="260" width="290" height="26" as="geometry" />
        </mxCell>
        <mxCell id="kX5vgCcboWEuCoNkR2Qn-157" value="+ getCover(idAlbum: int): blob" style="text;strokeColor=none;fillColor=none;align=left;verticalAlign=top;spacingLeft=4;spacingRight=4;overflow=hidden;rotatable=0;points=[[0,0.5],[1,0.5]];portConstraint=eastwest;whiteSpace=wrap;html=1;" vertex="1" parent="kX5vgCcboWEuCoNkR2Qn-144">
          <mxGeometry y="286" width="290" height="26" as="geometry" />
        </mxCell>
        <mxCell id="kX5vgCcboWEuCoNkR2Qn-156" value="+ getArtist(idAlbum: int): string" style="text;strokeColor=none;fillColor=none;align=left;verticalAlign=top;spacingLeft=4;spacingRight=4;overflow=hidden;rotatable=0;points=[[0,0.5],[1,0.5]];portConstraint=eastwest;whiteSpace=wrap;html=1;" vertex="1" parent="kX5vgCcboWEuCoNkR2Qn-144">
          <mxGeometry y="312" width="290" height="26" as="geometry" />
        </mxCell>
        <mxCell id="kX5vgCcboWEuCoNkR2Qn-155" value="+ getIdArtist(idAlbum: int): int" style="text;strokeColor=none;fillColor=none;align=left;verticalAlign=top;spacingLeft=4;spacingRight=4;overflow=hidden;rotatable=0;points=[[0,0.5],[1,0.5]];portConstraint=eastwest;whiteSpace=wrap;html=1;" vertex="1" parent="kX5vgCcboWEuCoNkR2Qn-144">
          <mxGeometry y="338" width="290" height="26" as="geometry" />
        </mxCell>
        <mxCell id="kX5vgCcboWEuCoNkR2Qn-154" value="+ findGenres(idAlbum: int): array(string)" style="text;strokeColor=none;fillColor=none;align=left;verticalAlign=top;spacingLeft=4;spacingRight=4;overflow=hidden;rotatable=0;points=[[0,0.5],[1,0.5]];portConstraint=eastwest;whiteSpace=wrap;html=1;" vertex="1" parent="kX5vgCcboWEuCoNkR2Qn-144">
          <mxGeometry y="364" width="290" height="26" as="geometry" />
        </mxCell>
        <mxCell id="kX5vgCcboWEuCoNkR2Qn-162" value="ArtistDB" style="swimlane;fontStyle=1;align=center;verticalAlign=top;childLayout=stackLayout;horizontal=1;startSize=26;horizontalStack=0;resizeParent=1;resizeParentMax=0;resizeLast=0;collapsible=1;marginBottom=0;whiteSpace=wrap;html=1;" vertex="1" parent="1">
          <mxGeometry x="1850" y="341" width="290" height="286" as="geometry" />
        </mxCell>
        <mxCell id="kX5vgCcboWEuCoNkR2Qn-163" value="- pdo: Pdo" style="text;strokeColor=none;fillColor=none;align=left;verticalAlign=top;spacingLeft=4;spacingRight=4;overflow=hidden;rotatable=0;points=[[0,0.5],[1,0.5]];portConstraint=eastwest;whiteSpace=wrap;html=1;" vertex="1" parent="kX5vgCcboWEuCoNkR2Qn-162">
          <mxGeometry y="26" width="290" height="26" as="geometry" />
        </mxCell>
        <mxCell id="kX5vgCcboWEuCoNkR2Qn-164" value="" style="line;strokeWidth=1;fillColor=none;align=left;verticalAlign=middle;spacingTop=-1;spacingLeft=3;spacingRight=3;rotatable=0;labelPosition=right;points=[];portConstraint=eastwest;strokeColor=inherit;" vertex="1" parent="kX5vgCcboWEuCoNkR2Qn-162">
          <mxGeometry y="52" width="290" height="8" as="geometry" />
        </mxCell>
        <mxCell id="kX5vgCcboWEuCoNkR2Qn-165" value="+ __construct(pdo: Pdo)" style="text;strokeColor=none;fillColor=none;align=left;verticalAlign=top;spacingLeft=4;spacingRight=4;overflow=hidden;rotatable=0;points=[[0,0.5],[1,0.5]];portConstraint=eastwest;whiteSpace=wrap;html=1;" vertex="1" parent="kX5vgCcboWEuCoNkR2Qn-162">
          <mxGeometry y="60" width="290" height="18" as="geometry" />
        </mxCell>
        <mxCell id="kX5vgCcboWEuCoNkR2Qn-166" value="+ findAll(): array(Artist)" style="text;strokeColor=none;fillColor=none;align=left;verticalAlign=top;spacingLeft=4;spacingRight=4;overflow=hidden;rotatable=0;points=[[0,0.5],[1,0.5]];portConstraint=eastwest;whiteSpace=wrap;html=1;" vertex="1" parent="kX5vgCcboWEuCoNkR2Qn-162">
          <mxGeometry y="78" width="290" height="26" as="geometry" />
        </mxCell>
        <mxCell id="kX5vgCcboWEuCoNkR2Qn-167" value="+ countAll(): int" style="text;strokeColor=none;fillColor=none;align=left;verticalAlign=top;spacingLeft=4;spacingRight=4;overflow=hidden;rotatable=0;points=[[0,0.5],[1,0.5]];portConstraint=eastwest;whiteSpace=wrap;html=1;" vertex="1" parent="kX5vgCcboWEuCoNkR2Qn-162">
          <mxGeometry y="104" width="290" height="26" as="geometry" />
        </mxCell>
        <mxCell id="kX5vgCcboWEuCoNkR2Qn-168" value="+ find(id: int): Artist" style="text;strokeColor=none;fillColor=none;align=left;verticalAlign=top;spacingLeft=4;spacingRight=4;overflow=hidden;rotatable=0;points=[[0,0.5],[1,0.5]];portConstraint=eastwest;whiteSpace=wrap;html=1;" vertex="1" parent="kX5vgCcboWEuCoNkR2Qn-162">
          <mxGeometry y="130" width="290" height="26" as="geometry" />
        </mxCell>
        <mxCell id="kX5vgCcboWEuCoNkR2Qn-169" value="+ getAleaArtists(): array(Artist)" style="text;strokeColor=none;fillColor=none;align=left;verticalAlign=top;spacingLeft=4;spacingRight=4;overflow=hidden;rotatable=0;points=[[0,0.5],[1,0.5]];portConstraint=eastwest;whiteSpace=wrap;html=1;" vertex="1" parent="kX5vgCcboWEuCoNkR2Qn-162">
          <mxGeometry y="156" width="290" height="26" as="geometry" />
        </mxCell>
        <mxCell id="kX5vgCcboWEuCoNkR2Qn-170" value="+ insert(artist: Artist): void" style="text;strokeColor=none;fillColor=none;align=left;verticalAlign=top;spacingLeft=4;spacingRight=4;overflow=hidden;rotatable=0;points=[[0,0.5],[1,0.5]];portConstraint=eastwest;whiteSpace=wrap;html=1;" vertex="1" parent="kX5vgCcboWEuCoNkR2Qn-162">
          <mxGeometry y="182" width="290" height="26" as="geometry" />
        </mxCell>
        <mxCell id="kX5vgCcboWEuCoNkR2Qn-171" value="+ update(artist: Artist): void" style="text;strokeColor=none;fillColor=none;align=left;verticalAlign=top;spacingLeft=4;spacingRight=4;overflow=hidden;rotatable=0;points=[[0,0.5],[1,0.5]];portConstraint=eastwest;whiteSpace=wrap;html=1;" vertex="1" parent="kX5vgCcboWEuCoNkR2Qn-162">
          <mxGeometry y="208" width="290" height="26" as="geometry" />
        </mxCell>
        <mxCell id="kX5vgCcboWEuCoNkR2Qn-172" value="+ delete(id: int): void" style="text;strokeColor=none;fillColor=none;align=left;verticalAlign=top;spacingLeft=4;spacingRight=4;overflow=hidden;rotatable=0;points=[[0,0.5],[1,0.5]];portConstraint=eastwest;whiteSpace=wrap;html=1;" vertex="1" parent="kX5vgCcboWEuCoNkR2Qn-162">
          <mxGeometry y="234" width="290" height="26" as="geometry" />
        </mxCell>
        <mxCell id="kX5vgCcboWEuCoNkR2Qn-173" value="+ getPicture(id: int): blob" style="text;strokeColor=none;fillColor=none;align=left;verticalAlign=top;spacingLeft=4;spacingRight=4;overflow=hidden;rotatable=0;points=[[0,0.5],[1,0.5]];portConstraint=eastwest;whiteSpace=wrap;html=1;" vertex="1" parent="kX5vgCcboWEuCoNkR2Qn-162">
          <mxGeometry y="260" width="290" height="26" as="geometry" />
        </mxCell>
        <mxCell id="kX5vgCcboWEuCoNkR2Qn-178" value="GenreDB" style="swimlane;fontStyle=1;align=center;verticalAlign=top;childLayout=stackLayout;horizontal=1;startSize=26;horizontalStack=0;resizeParent=1;resizeParentMax=0;resizeLast=0;collapsible=1;marginBottom=0;whiteSpace=wrap;html=1;" vertex="1" parent="1">
          <mxGeometry x="1850" y="675" width="290" height="208" as="geometry" />
        </mxCell>
        <mxCell id="kX5vgCcboWEuCoNkR2Qn-179" value="- pdo: Pdo" style="text;strokeColor=none;fillColor=none;align=left;verticalAlign=top;spacingLeft=4;spacingRight=4;overflow=hidden;rotatable=0;points=[[0,0.5],[1,0.5]];portConstraint=eastwest;whiteSpace=wrap;html=1;" vertex="1" parent="kX5vgCcboWEuCoNkR2Qn-178">
          <mxGeometry y="26" width="290" height="26" as="geometry" />
        </mxCell>
        <mxCell id="kX5vgCcboWEuCoNkR2Qn-180" value="" style="line;strokeWidth=1;fillColor=none;align=left;verticalAlign=middle;spacingTop=-1;spacingLeft=3;spacingRight=3;rotatable=0;labelPosition=right;points=[];portConstraint=eastwest;strokeColor=inherit;" vertex="1" parent="kX5vgCcboWEuCoNkR2Qn-178">
          <mxGeometry y="52" width="290" height="8" as="geometry" />
        </mxCell>
        <mxCell id="kX5vgCcboWEuCoNkR2Qn-181" value="+ __construct(pdo: Pdo)" style="text;strokeColor=none;fillColor=none;align=left;verticalAlign=top;spacingLeft=4;spacingRight=4;overflow=hidden;rotatable=0;points=[[0,0.5],[1,0.5]];portConstraint=eastwest;whiteSpace=wrap;html=1;" vertex="1" parent="kX5vgCcboWEuCoNkR2Qn-178">
          <mxGeometry y="60" width="290" height="18" as="geometry" />
        </mxCell>
        <mxCell id="kX5vgCcboWEuCoNkR2Qn-182" value="+ findAll(): array(Genre)" style="text;strokeColor=none;fillColor=none;align=left;verticalAlign=top;spacingLeft=4;spacingRight=4;overflow=hidden;rotatable=0;points=[[0,0.5],[1,0.5]];portConstraint=eastwest;whiteSpace=wrap;html=1;" vertex="1" parent="kX5vgCcboWEuCoNkR2Qn-178">
          <mxGeometry y="78" width="290" height="26" as="geometry" />
        </mxCell>
        <mxCell id="kX5vgCcboWEuCoNkR2Qn-184" value="+ find(id: int): Genre" style="text;strokeColor=none;fillColor=none;align=left;verticalAlign=top;spacingLeft=4;spacingRight=4;overflow=hidden;rotatable=0;points=[[0,0.5],[1,0.5]];portConstraint=eastwest;whiteSpace=wrap;html=1;" vertex="1" parent="kX5vgCcboWEuCoNkR2Qn-178">
          <mxGeometry y="104" width="290" height="26" as="geometry" />
        </mxCell>
        <mxCell id="kX5vgCcboWEuCoNkR2Qn-186" value="+ insert(genre: Genre): void" style="text;strokeColor=none;fillColor=none;align=left;verticalAlign=top;spacingLeft=4;spacingRight=4;overflow=hidden;rotatable=0;points=[[0,0.5],[1,0.5]];portConstraint=eastwest;whiteSpace=wrap;html=1;" vertex="1" parent="kX5vgCcboWEuCoNkR2Qn-178">
          <mxGeometry y="130" width="290" height="26" as="geometry" />
        </mxCell>
        <mxCell id="kX5vgCcboWEuCoNkR2Qn-187" value="+ update(genre: Genre): void" style="text;strokeColor=none;fillColor=none;align=left;verticalAlign=top;spacingLeft=4;spacingRight=4;overflow=hidden;rotatable=0;points=[[0,0.5],[1,0.5]];portConstraint=eastwest;whiteSpace=wrap;html=1;" vertex="1" parent="kX5vgCcboWEuCoNkR2Qn-178">
          <mxGeometry y="156" width="290" height="26" as="geometry" />
        </mxCell>
        <mxCell id="kX5vgCcboWEuCoNkR2Qn-188" value="+ delete(id: int): void" style="text;strokeColor=none;fillColor=none;align=left;verticalAlign=top;spacingLeft=4;spacingRight=4;overflow=hidden;rotatable=0;points=[[0,0.5],[1,0.5]];portConstraint=eastwest;whiteSpace=wrap;html=1;" vertex="1" parent="kX5vgCcboWEuCoNkR2Qn-178">
          <mxGeometry y="182" width="290" height="26" as="geometry" />
        </mxCell>
        <mxCell id="kX5vgCcboWEuCoNkR2Qn-190" value="LikeAlbumDB" style="swimlane;fontStyle=1;align=center;verticalAlign=top;childLayout=stackLayout;horizontal=1;startSize=26;horizontalStack=0;resizeParent=1;resizeParentMax=0;resizeLast=0;collapsible=1;marginBottom=0;whiteSpace=wrap;html=1;" vertex="1" parent="1">
          <mxGeometry x="1850" y="915" width="290" height="130" as="geometry" />
        </mxCell>
        <mxCell id="kX5vgCcboWEuCoNkR2Qn-191" value="- pdo: Pdo" style="text;strokeColor=none;fillColor=none;align=left;verticalAlign=top;spacingLeft=4;spacingRight=4;overflow=hidden;rotatable=0;points=[[0,0.5],[1,0.5]];portConstraint=eastwest;whiteSpace=wrap;html=1;" vertex="1" parent="kX5vgCcboWEuCoNkR2Qn-190">
          <mxGeometry y="26" width="290" height="26" as="geometry" />
        </mxCell>
        <mxCell id="kX5vgCcboWEuCoNkR2Qn-192" value="" style="line;strokeWidth=1;fillColor=none;align=left;verticalAlign=middle;spacingTop=-1;spacingLeft=3;spacingRight=3;rotatable=0;labelPosition=right;points=[];portConstraint=eastwest;strokeColor=inherit;" vertex="1" parent="kX5vgCcboWEuCoNkR2Qn-190">
          <mxGeometry y="52" width="290" height="8" as="geometry" />
        </mxCell>
        <mxCell id="kX5vgCcboWEuCoNkR2Qn-193" value="+ __construct(pdo: Pdo)" style="text;strokeColor=none;fillColor=none;align=left;verticalAlign=top;spacingLeft=4;spacingRight=4;overflow=hidden;rotatable=0;points=[[0,0.5],[1,0.5]];portConstraint=eastwest;whiteSpace=wrap;html=1;" vertex="1" parent="kX5vgCcboWEuCoNkR2Qn-190">
          <mxGeometry y="60" width="290" height="18" as="geometry" />
        </mxCell>
        <mxCell id="kX5vgCcboWEuCoNkR2Qn-197" value="+ isLike(idAlbum: int, idUtilisateur: int): bool" style="text;strokeColor=none;fillColor=none;align=left;verticalAlign=top;spacingLeft=4;spacingRight=4;overflow=hidden;rotatable=0;points=[[0,0.5],[1,0.5]];portConstraint=eastwest;whiteSpace=wrap;html=1;" vertex="1" parent="kX5vgCcboWEuCoNkR2Qn-190">
          <mxGeometry y="78" width="290" height="26" as="geometry" />
        </mxCell>
        <mxCell id="kX5vgCcboWEuCoNkR2Qn-198" value="+ like(idAlbum: int, idUtilisateur: int): void" style="text;strokeColor=none;fillColor=none;align=left;verticalAlign=top;spacingLeft=4;spacingRight=4;overflow=hidden;rotatable=0;points=[[0,0.5],[1,0.5]];portConstraint=eastwest;whiteSpace=wrap;html=1;" vertex="1" parent="kX5vgCcboWEuCoNkR2Qn-190">
          <mxGeometry y="104" width="290" height="26" as="geometry" />
        </mxCell>
        <mxCell id="kX5vgCcboWEuCoNkR2Qn-199" value="LikeArtistDB" style="swimlane;fontStyle=1;align=center;verticalAlign=top;childLayout=stackLayout;horizontal=1;startSize=26;horizontalStack=0;resizeParent=1;resizeParentMax=0;resizeLast=0;collapsible=1;marginBottom=0;whiteSpace=wrap;html=1;" vertex="1" parent="1">
          <mxGeometry x="1850" y="1065" width="290" height="130" as="geometry" />
        </mxCell>
        <mxCell id="kX5vgCcboWEuCoNkR2Qn-200" value="- pdo: Pdo" style="text;strokeColor=none;fillColor=none;align=left;verticalAlign=top;spacingLeft=4;spacingRight=4;overflow=hidden;rotatable=0;points=[[0,0.5],[1,0.5]];portConstraint=eastwest;whiteSpace=wrap;html=1;" vertex="1" parent="kX5vgCcboWEuCoNkR2Qn-199">
          <mxGeometry y="26" width="290" height="26" as="geometry" />
        </mxCell>
        <mxCell id="kX5vgCcboWEuCoNkR2Qn-201" value="" style="line;strokeWidth=1;fillColor=none;align=left;verticalAlign=middle;spacingTop=-1;spacingLeft=3;spacingRight=3;rotatable=0;labelPosition=right;points=[];portConstraint=eastwest;strokeColor=inherit;" vertex="1" parent="kX5vgCcboWEuCoNkR2Qn-199">
          <mxGeometry y="52" width="290" height="8" as="geometry" />
        </mxCell>
        <mxCell id="kX5vgCcboWEuCoNkR2Qn-202" value="+ __construct(pdo: Pdo)" style="text;strokeColor=none;fillColor=none;align=left;verticalAlign=top;spacingLeft=4;spacingRight=4;overflow=hidden;rotatable=0;points=[[0,0.5],[1,0.5]];portConstraint=eastwest;whiteSpace=wrap;html=1;" vertex="1" parent="kX5vgCcboWEuCoNkR2Qn-199">
          <mxGeometry y="60" width="290" height="18" as="geometry" />
        </mxCell>
        <mxCell id="kX5vgCcboWEuCoNkR2Qn-203" value="+ isLike(idArtist: int, idUtilisateur: int): bool" style="text;strokeColor=none;fillColor=none;align=left;verticalAlign=top;spacingLeft=4;spacingRight=4;overflow=hidden;rotatable=0;points=[[0,0.5],[1,0.5]];portConstraint=eastwest;whiteSpace=wrap;html=1;" vertex="1" parent="kX5vgCcboWEuCoNkR2Qn-199">
          <mxGeometry y="78" width="290" height="26" as="geometry" />
        </mxCell>
        <mxCell id="kX5vgCcboWEuCoNkR2Qn-204" value="+ like(idArtist: int, idUtilisateur: int): void" style="text;strokeColor=none;fillColor=none;align=left;verticalAlign=top;spacingLeft=4;spacingRight=4;overflow=hidden;rotatable=0;points=[[0,0.5],[1,0.5]];portConstraint=eastwest;whiteSpace=wrap;html=1;" vertex="1" parent="kX5vgCcboWEuCoNkR2Qn-199">
          <mxGeometry y="104" width="290" height="26" as="geometry" />
        </mxCell>
        <mxCell id="kX5vgCcboWEuCoNkR2Qn-205" value="LikeSonDB" style="swimlane;fontStyle=1;align=center;verticalAlign=top;childLayout=stackLayout;horizontal=1;startSize=26;horizontalStack=0;resizeParent=1;resizeParentMax=0;resizeLast=0;collapsible=1;marginBottom=0;whiteSpace=wrap;html=1;" vertex="1" parent="1">
          <mxGeometry x="1850" y="1215" width="290" height="182" as="geometry" />
        </mxCell>
        <mxCell id="kX5vgCcboWEuCoNkR2Qn-206" value="- pdo: Pdo" style="text;strokeColor=none;fillColor=none;align=left;verticalAlign=top;spacingLeft=4;spacingRight=4;overflow=hidden;rotatable=0;points=[[0,0.5],[1,0.5]];portConstraint=eastwest;whiteSpace=wrap;html=1;" vertex="1" parent="kX5vgCcboWEuCoNkR2Qn-205">
          <mxGeometry y="26" width="290" height="26" as="geometry" />
        </mxCell>
        <mxCell id="kX5vgCcboWEuCoNkR2Qn-207" value="" style="line;strokeWidth=1;fillColor=none;align=left;verticalAlign=middle;spacingTop=-1;spacingLeft=3;spacingRight=3;rotatable=0;labelPosition=right;points=[];portConstraint=eastwest;strokeColor=inherit;" vertex="1" parent="kX5vgCcboWEuCoNkR2Qn-205">
          <mxGeometry y="52" width="290" height="8" as="geometry" />
        </mxCell>
        <mxCell id="kX5vgCcboWEuCoNkR2Qn-208" value="+ __construct(pdo: Pdo)" style="text;strokeColor=none;fillColor=none;align=left;verticalAlign=top;spacingLeft=4;spacingRight=4;overflow=hidden;rotatable=0;points=[[0,0.5],[1,0.5]];portConstraint=eastwest;whiteSpace=wrap;html=1;" vertex="1" parent="kX5vgCcboWEuCoNkR2Qn-205">
          <mxGeometry y="60" width="290" height="18" as="geometry" />
        </mxCell>
        <mxCell id="kX5vgCcboWEuCoNkR2Qn-209" value="+ isLiked(idSon: int, idUtilisateur: int): bool" style="text;strokeColor=none;fillColor=none;align=left;verticalAlign=top;spacingLeft=4;spacingRight=4;overflow=hidden;rotatable=0;points=[[0,0.5],[1,0.5]];portConstraint=eastwest;whiteSpace=wrap;html=1;" vertex="1" parent="kX5vgCcboWEuCoNkR2Qn-205">
          <mxGeometry y="78" width="290" height="26" as="geometry" />
        </mxCell>
        <mxCell id="kX5vgCcboWEuCoNkR2Qn-210" value="+ like(idSon: int, idUtilisateur: int): void" style="text;strokeColor=none;fillColor=none;align=left;verticalAlign=top;spacingLeft=4;spacingRight=4;overflow=hidden;rotatable=0;points=[[0,0.5],[1,0.5]];portConstraint=eastwest;whiteSpace=wrap;html=1;" vertex="1" parent="kX5vgCcboWEuCoNkR2Qn-205">
          <mxGeometry y="104" width="290" height="26" as="geometry" />
        </mxCell>
        <mxCell id="kX5vgCcboWEuCoNkR2Qn-212" value="+ countLikes(idArtist: int, idUtil: int): int" style="text;strokeColor=none;fillColor=none;align=left;verticalAlign=top;spacingLeft=4;spacingRight=4;overflow=hidden;rotatable=0;points=[[0,0.5],[1,0.5]];portConstraint=eastwest;whiteSpace=wrap;html=1;" vertex="1" parent="kX5vgCcboWEuCoNkR2Qn-205">
          <mxGeometry y="130" width="290" height="26" as="geometry" />
        </mxCell>
        <mxCell id="kX5vgCcboWEuCoNkR2Qn-211" value="+ nbLikesArtist(idArtist: int, idUtil: int): int" style="text;strokeColor=none;fillColor=none;align=left;verticalAlign=top;spacingLeft=4;spacingRight=4;overflow=hidden;rotatable=0;points=[[0,0.5],[1,0.5]];portConstraint=eastwest;whiteSpace=wrap;html=1;" vertex="1" parent="kX5vgCcboWEuCoNkR2Qn-205">
          <mxGeometry y="156" width="290" height="26" as="geometry" />
        </mxCell>
        <mxCell id="kX5vgCcboWEuCoNkR2Qn-213" value="PlaylistDB" style="swimlane;fontStyle=1;align=center;verticalAlign=top;childLayout=stackLayout;horizontal=1;startSize=26;horizontalStack=0;resizeParent=1;resizeParentMax=0;resizeLast=0;collapsible=1;marginBottom=0;whiteSpace=wrap;html=1;" vertex="1" parent="1">
          <mxGeometry x="930" y="765" width="290" height="520" as="geometry" />
        </mxCell>
        <mxCell id="kX5vgCcboWEuCoNkR2Qn-214" value="- pdo: Pdo" style="text;strokeColor=none;fillColor=none;align=left;verticalAlign=top;spacingLeft=4;spacingRight=4;overflow=hidden;rotatable=0;points=[[0,0.5],[1,0.5]];portConstraint=eastwest;whiteSpace=wrap;html=1;" vertex="1" parent="kX5vgCcboWEuCoNkR2Qn-213">
          <mxGeometry y="26" width="290" height="26" as="geometry" />
        </mxCell>
        <mxCell id="kX5vgCcboWEuCoNkR2Qn-215" value="" style="line;strokeWidth=1;fillColor=none;align=left;verticalAlign=middle;spacingTop=-1;spacingLeft=3;spacingRight=3;rotatable=0;labelPosition=right;points=[];portConstraint=eastwest;strokeColor=inherit;" vertex="1" parent="kX5vgCcboWEuCoNkR2Qn-213">
          <mxGeometry y="52" width="290" height="8" as="geometry" />
        </mxCell>
        <mxCell id="kX5vgCcboWEuCoNkR2Qn-216" value="+ __construct(pdo: Pdo)" style="text;strokeColor=none;fillColor=none;align=left;verticalAlign=top;spacingLeft=4;spacingRight=4;overflow=hidden;rotatable=0;points=[[0,0.5],[1,0.5]];portConstraint=eastwest;whiteSpace=wrap;html=1;" vertex="1" parent="kX5vgCcboWEuCoNkR2Qn-213">
          <mxGeometry y="60" width="290" height="18" as="geometry" />
        </mxCell>
        <mxCell id="kX5vgCcboWEuCoNkR2Qn-217" value="+ findAll(): array(Playlist)" style="text;strokeColor=none;fillColor=none;align=left;verticalAlign=top;spacingLeft=4;spacingRight=4;overflow=hidden;rotatable=0;points=[[0,0.5],[1,0.5]];portConstraint=eastwest;whiteSpace=wrap;html=1;" vertex="1" parent="kX5vgCcboWEuCoNkR2Qn-213">
          <mxGeometry y="78" width="290" height="26" as="geometry" />
        </mxCell>
        <mxCell id="kX5vgCcboWEuCoNkR2Qn-218" value="+ find(idPlaylist: int): Playlist" style="text;strokeColor=none;fillColor=none;align=left;verticalAlign=top;spacingLeft=4;spacingRight=4;overflow=hidden;rotatable=0;points=[[0,0.5],[1,0.5]];portConstraint=eastwest;whiteSpace=wrap;html=1;" vertex="1" parent="kX5vgCcboWEuCoNkR2Qn-213">
          <mxGeometry y="104" width="290" height="26" as="geometry" />
        </mxCell>
        <mxCell id="kX5vgCcboWEuCoNkR2Qn-219" value="+ findPlaylistsUser(idUtilisateur: int): array(Playlist)" style="text;strokeColor=none;fillColor=none;align=left;verticalAlign=top;spacingLeft=4;spacingRight=4;overflow=hidden;rotatable=0;points=[[0,0.5],[1,0.5]];portConstraint=eastwest;whiteSpace=wrap;html=1;" vertex="1" parent="kX5vgCcboWEuCoNkR2Qn-213">
          <mxGeometry y="130" width="290" height="26" as="geometry" />
        </mxCell>
        <mxCell id="kX5vgCcboWEuCoNkR2Qn-220" value="+ insert(playlist: Playlist): void" style="text;strokeColor=none;fillColor=none;align=left;verticalAlign=top;spacingLeft=4;spacingRight=4;overflow=hidden;rotatable=0;points=[[0,0.5],[1,0.5]];portConstraint=eastwest;whiteSpace=wrap;html=1;" vertex="1" parent="kX5vgCcboWEuCoNkR2Qn-213">
          <mxGeometry y="156" width="290" height="26" as="geometry" />
        </mxCell>
        <mxCell id="kX5vgCcboWEuCoNkR2Qn-221" value="+ update(playlist: Playlist): void" style="text;strokeColor=none;fillColor=none;align=left;verticalAlign=top;spacingLeft=4;spacingRight=4;overflow=hidden;rotatable=0;points=[[0,0.5],[1,0.5]];portConstraint=eastwest;whiteSpace=wrap;html=1;" vertex="1" parent="kX5vgCcboWEuCoNkR2Qn-213">
          <mxGeometry y="182" width="290" height="26" as="geometry" />
        </mxCell>
        <mxCell id="kX5vgCcboWEuCoNkR2Qn-222" value="+ delete(idPlaylist: int): void" style="text;strokeColor=none;fillColor=none;align=left;verticalAlign=top;spacingLeft=4;spacingRight=4;overflow=hidden;rotatable=0;points=[[0,0.5],[1,0.5]];portConstraint=eastwest;whiteSpace=wrap;html=1;" vertex="1" parent="kX5vgCcboWEuCoNkR2Qn-213">
          <mxGeometry y="208" width="290" height="26" as="geometry" />
        </mxCell>
        <mxCell id="kX5vgCcboWEuCoNkR2Qn-223" value="+ findAllSonPlaylist(idPlaylist: int): array(Son)" style="text;strokeColor=none;fillColor=none;align=left;verticalAlign=top;spacingLeft=4;spacingRight=4;overflow=hidden;rotatable=0;points=[[0,0.5],[1,0.5]];portConstraint=eastwest;whiteSpace=wrap;html=1;" vertex="1" parent="kX5vgCcboWEuCoNkR2Qn-213">
          <mxGeometry y="234" width="290" height="26" as="geometry" />
        </mxCell>
        <mxCell id="kX5vgCcboWEuCoNkR2Qn-224" value="+ deleteSon(idSon: int, idPlaylist: int): array(Son)" style="text;strokeColor=none;fillColor=none;align=left;verticalAlign=top;spacingLeft=4;spacingRight=4;overflow=hidden;rotatable=0;points=[[0,0.5],[1,0.5]];portConstraint=eastwest;whiteSpace=wrap;html=1;" vertex="1" parent="kX5vgCcboWEuCoNkR2Qn-213">
          <mxGeometry y="260" width="290" height="26" as="geometry" />
        </mxCell>
        <mxCell id="kX5vgCcboWEuCoNkR2Qn-225" value="+ findAllSonNotInPlaylist(idPlaylist: int): array(Son)" style="text;strokeColor=none;fillColor=none;align=left;verticalAlign=top;spacingLeft=4;spacingRight=4;overflow=hidden;rotatable=0;points=[[0,0.5],[1,0.5]];portConstraint=eastwest;whiteSpace=wrap;html=1;" vertex="1" parent="kX5vgCcboWEuCoNkR2Qn-213">
          <mxGeometry y="286" width="290" height="26" as="geometry" />
        </mxCell>
        <mxCell id="kX5vgCcboWEuCoNkR2Qn-226" value="+ getPlaylist(idUtilisateur: int): Playlist" style="text;strokeColor=none;fillColor=none;align=left;verticalAlign=top;spacingLeft=4;spacingRight=4;overflow=hidden;rotatable=0;points=[[0,0.5],[1,0.5]];portConstraint=eastwest;whiteSpace=wrap;html=1;" vertex="1" parent="kX5vgCcboWEuCoNkR2Qn-213">
          <mxGeometry y="312" width="290" height="26" as="geometry" />
        </mxCell>
        <mxCell id="kX5vgCcboWEuCoNkR2Qn-227" value="+ createPlaylist(playlist: Playlist): int" style="text;strokeColor=none;fillColor=none;align=left;verticalAlign=top;spacingLeft=4;spacingRight=4;overflow=hidden;rotatable=0;points=[[0,0.5],[1,0.5]];portConstraint=eastwest;whiteSpace=wrap;html=1;" vertex="1" parent="kX5vgCcboWEuCoNkR2Qn-213">
          <mxGeometry y="338" width="290" height="26" as="geometry" />
        </mxCell>
        <mxCell id="kX5vgCcboWEuCoNkR2Qn-228" value="+ addSon(idPlaylist: int, idSon: int): void" style="text;strokeColor=none;fillColor=none;align=left;verticalAlign=top;spacingLeft=4;spacingRight=4;overflow=hidden;rotatable=0;points=[[0,0.5],[1,0.5]];portConstraint=eastwest;whiteSpace=wrap;html=1;" vertex="1" parent="kX5vgCcboWEuCoNkR2Qn-213">
          <mxGeometry y="364" width="290" height="26" as="geometry" />
        </mxCell>
        <mxCell id="kX5vgCcboWEuCoNkR2Qn-233" value="+ getArtists(idPlaylist: int) array(string)" style="text;strokeColor=none;fillColor=none;align=left;verticalAlign=top;spacingLeft=4;spacingRight=4;overflow=hidden;rotatable=0;points=[[0,0.5],[1,0.5]];portConstraint=eastwest;whiteSpace=wrap;html=1;" vertex="1" parent="kX5vgCcboWEuCoNkR2Qn-213">
          <mxGeometry y="390" width="290" height="26" as="geometry" />
        </mxCell>
        <mxCell id="kX5vgCcboWEuCoNkR2Qn-232" value="+ getPlaylistId(idPlaylist: int): Playlist" style="text;strokeColor=none;fillColor=none;align=left;verticalAlign=top;spacingLeft=4;spacingRight=4;overflow=hidden;rotatable=0;points=[[0,0.5],[1,0.5]];portConstraint=eastwest;whiteSpace=wrap;html=1;" vertex="1" parent="kX5vgCcboWEuCoNkR2Qn-213">
          <mxGeometry y="416" width="290" height="26" as="geometry" />
        </mxCell>
        <mxCell id="kX5vgCcboWEuCoNkR2Qn-231" value="+ getDuree(idPlaylist: int): string" style="text;strokeColor=none;fillColor=none;align=left;verticalAlign=top;spacingLeft=4;spacingRight=4;overflow=hidden;rotatable=0;points=[[0,0.5],[1,0.5]];portConstraint=eastwest;whiteSpace=wrap;html=1;" vertex="1" parent="kX5vgCcboWEuCoNkR2Qn-213">
          <mxGeometry y="442" width="290" height="26" as="geometry" />
        </mxCell>
        <mxCell id="kX5vgCcboWEuCoNkR2Qn-230" value="+ getSons(idPlaylist: int): array(son)" style="text;strokeColor=none;fillColor=none;align=left;verticalAlign=top;spacingLeft=4;spacingRight=4;overflow=hidden;rotatable=0;points=[[0,0.5],[1,0.5]];portConstraint=eastwest;whiteSpace=wrap;html=1;" vertex="1" parent="kX5vgCcboWEuCoNkR2Qn-213">
          <mxGeometry y="468" width="290" height="26" as="geometry" />
        </mxCell>
        <mxCell id="kX5vgCcboWEuCoNkR2Qn-229" value="+ removeSon(idPlaylist: int, idSon: int): void" style="text;strokeColor=none;fillColor=none;align=left;verticalAlign=top;spacingLeft=4;spacingRight=4;overflow=hidden;rotatable=0;points=[[0,0.5],[1,0.5]];portConstraint=eastwest;whiteSpace=wrap;html=1;" vertex="1" parent="kX5vgCcboWEuCoNkR2Qn-213">
          <mxGeometry y="494" width="290" height="26" as="geometry" />
        </mxCell>
        <mxCell id="kX5vgCcboWEuCoNkR2Qn-234" value="RechercheDB" style="swimlane;fontStyle=1;align=center;verticalAlign=top;childLayout=stackLayout;horizontal=1;startSize=26;horizontalStack=0;resizeParent=1;resizeParentMax=0;resizeLast=0;collapsible=1;marginBottom=0;whiteSpace=wrap;html=1;" vertex="1" parent="1">
          <mxGeometry x="930" y="1316" width="290" height="130" as="geometry" />
        </mxCell>
        <mxCell id="kX5vgCcboWEuCoNkR2Qn-235" value="- pdo: Pdo" style="text;strokeColor=none;fillColor=none;align=left;verticalAlign=top;spacingLeft=4;spacingRight=4;overflow=hidden;rotatable=0;points=[[0,0.5],[1,0.5]];portConstraint=eastwest;whiteSpace=wrap;html=1;" vertex="1" parent="kX5vgCcboWEuCoNkR2Qn-234">
          <mxGeometry y="26" width="290" height="26" as="geometry" />
        </mxCell>
        <mxCell id="kX5vgCcboWEuCoNkR2Qn-236" value="" style="line;strokeWidth=1;fillColor=none;align=left;verticalAlign=middle;spacingTop=-1;spacingLeft=3;spacingRight=3;rotatable=0;labelPosition=right;points=[];portConstraint=eastwest;strokeColor=inherit;" vertex="1" parent="kX5vgCcboWEuCoNkR2Qn-234">
          <mxGeometry y="52" width="290" height="8" as="geometry" />
        </mxCell>
        <mxCell id="kX5vgCcboWEuCoNkR2Qn-237" value="+ __construct(pdo: Pdo)" style="text;strokeColor=none;fillColor=none;align=left;verticalAlign=top;spacingLeft=4;spacingRight=4;overflow=hidden;rotatable=0;points=[[0,0.5],[1,0.5]];portConstraint=eastwest;whiteSpace=wrap;html=1;" vertex="1" parent="kX5vgCcboWEuCoNkR2Qn-234">
          <mxGeometry y="60" width="290" height="18" as="geometry" />
        </mxCell>
        <mxCell id="kX5vgCcboWEuCoNkR2Qn-238" value="+ search(recherche: string): array" style="text;strokeColor=none;fillColor=none;align=left;verticalAlign=top;spacingLeft=4;spacingRight=4;overflow=hidden;rotatable=0;points=[[0,0.5],[1,0.5]];portConstraint=eastwest;whiteSpace=wrap;html=1;" vertex="1" parent="kX5vgCcboWEuCoNkR2Qn-234">
          <mxGeometry y="78" width="290" height="26" as="geometry" />
        </mxCell>
        <mxCell id="kX5vgCcboWEuCoNkR2Qn-239" value="+ getInfosSearch(recherche: string): string" style="text;strokeColor=none;fillColor=none;align=left;verticalAlign=top;spacingLeft=4;spacingRight=4;overflow=hidden;rotatable=0;points=[[0,0.5],[1,0.5]];portConstraint=eastwest;whiteSpace=wrap;html=1;" vertex="1" parent="kX5vgCcboWEuCoNkR2Qn-234">
          <mxGeometry y="104" width="290" height="26" as="geometry" />
        </mxCell>
        <mxCell id="kX5vgCcboWEuCoNkR2Qn-242" value="DataBaseManager" style="swimlane;fontStyle=1;align=center;verticalAlign=top;childLayout=stackLayout;horizontal=1;startSize=26;horizontalStack=0;resizeParent=1;resizeParentMax=0;resizeLast=0;collapsible=1;marginBottom=0;whiteSpace=wrap;html=1;" vertex="1" parent="1">
          <mxGeometry x="1390" y="820.5" width="290" height="286" as="geometry" />
        </mxCell>
        <mxCell id="kX5vgCcboWEuCoNkR2Qn-244" value="" style="line;strokeWidth=1;fillColor=none;align=left;verticalAlign=middle;spacingTop=-1;spacingLeft=3;spacingRight=3;rotatable=0;labelPosition=right;points=[];portConstraint=eastwest;strokeColor=inherit;" vertex="1" parent="kX5vgCcboWEuCoNkR2Qn-242">
          <mxGeometry y="26" width="290" height="8" as="geometry" />
        </mxCell>
        <mxCell id="kX5vgCcboWEuCoNkR2Qn-245" value="+ __construct()" style="text;strokeColor=none;fillColor=none;align=left;verticalAlign=top;spacingLeft=4;spacingRight=4;overflow=hidden;rotatable=0;points=[[0,0.5],[1,0.5]];portConstraint=eastwest;whiteSpace=wrap;html=1;" vertex="1" parent="kX5vgCcboWEuCoNkR2Qn-242">
          <mxGeometry y="34" width="290" height="18" as="geometry" />
        </mxCell>
        <mxCell id="kX5vgCcboWEuCoNkR2Qn-246" value="+ getArtistDB(): ArtistDB" style="text;strokeColor=none;fillColor=none;align=left;verticalAlign=top;spacingLeft=4;spacingRight=4;overflow=hidden;rotatable=0;points=[[0,0.5],[1,0.5]];portConstraint=eastwest;whiteSpace=wrap;html=1;" vertex="1" parent="kX5vgCcboWEuCoNkR2Qn-242">
          <mxGeometry y="52" width="290" height="26" as="geometry" />
        </mxCell>
        <mxCell id="kX5vgCcboWEuCoNkR2Qn-247" value="+ getLikeArtisteDB(): LikeArtisteDB" style="text;strokeColor=none;fillColor=none;align=left;verticalAlign=top;spacingLeft=4;spacingRight=4;overflow=hidden;rotatable=0;points=[[0,0.5],[1,0.5]];portConstraint=eastwest;whiteSpace=wrap;html=1;" vertex="1" parent="kX5vgCcboWEuCoNkR2Qn-242">
          <mxGeometry y="78" width="290" height="26" as="geometry" />
        </mxCell>
        <mxCell id="kX5vgCcboWEuCoNkR2Qn-260" value="+ getSonDB(): SonDB" style="text;strokeColor=none;fillColor=none;align=left;verticalAlign=top;spacingLeft=4;spacingRight=4;overflow=hidden;rotatable=0;points=[[0,0.5],[1,0.5]];portConstraint=eastwest;whiteSpace=wrap;html=1;" vertex="1" parent="kX5vgCcboWEuCoNkR2Qn-242">
          <mxGeometry y="104" width="290" height="26" as="geometry" />
        </mxCell>
        <mxCell id="kX5vgCcboWEuCoNkR2Qn-259" value="+ getAlbumDB(): AlbumDB" style="text;strokeColor=none;fillColor=none;align=left;verticalAlign=top;spacingLeft=4;spacingRight=4;overflow=hidden;rotatable=0;points=[[0,0.5],[1,0.5]];portConstraint=eastwest;whiteSpace=wrap;html=1;" vertex="1" parent="kX5vgCcboWEuCoNkR2Qn-242">
          <mxGeometry y="130" width="290" height="26" as="geometry" />
        </mxCell>
        <mxCell id="kX5vgCcboWEuCoNkR2Qn-258" value="+ getLikeAlbumDB(): LikeAlbumDB&lt;br&gt;&amp;nbsp;" style="text;strokeColor=none;fillColor=none;align=left;verticalAlign=top;spacingLeft=4;spacingRight=4;overflow=hidden;rotatable=0;points=[[0,0.5],[1,0.5]];portConstraint=eastwest;whiteSpace=wrap;html=1;" vertex="1" parent="kX5vgCcboWEuCoNkR2Qn-242">
          <mxGeometry y="156" width="290" height="26" as="geometry" />
        </mxCell>
        <mxCell id="kX5vgCcboWEuCoNkR2Qn-257" value="+ getUtilisateurDB() UtilisateurDB" style="text;strokeColor=none;fillColor=none;align=left;verticalAlign=top;spacingLeft=4;spacingRight=4;overflow=hidden;rotatable=0;points=[[0,0.5],[1,0.5]];portConstraint=eastwest;whiteSpace=wrap;html=1;" vertex="1" parent="kX5vgCcboWEuCoNkR2Qn-242">
          <mxGeometry y="182" width="290" height="26" as="geometry" />
        </mxCell>
        <mxCell id="kX5vgCcboWEuCoNkR2Qn-256" value="+ getGenreDB(): GenreDB" style="text;strokeColor=none;fillColor=none;align=left;verticalAlign=top;spacingLeft=4;spacingRight=4;overflow=hidden;rotatable=0;points=[[0,0.5],[1,0.5]];portConstraint=eastwest;whiteSpace=wrap;html=1;" vertex="1" parent="kX5vgCcboWEuCoNkR2Qn-242">
          <mxGeometry y="208" width="290" height="26" as="geometry" />
        </mxCell>
        <mxCell id="kX5vgCcboWEuCoNkR2Qn-255" value="+ getRechercheDB(): RechercheDB" style="text;strokeColor=none;fillColor=none;align=left;verticalAlign=top;spacingLeft=4;spacingRight=4;overflow=hidden;rotatable=0;points=[[0,0.5],[1,0.5]];portConstraint=eastwest;whiteSpace=wrap;html=1;" vertex="1" parent="kX5vgCcboWEuCoNkR2Qn-242">
          <mxGeometry y="234" width="290" height="26" as="geometry" />
        </mxCell>
        <mxCell id="kX5vgCcboWEuCoNkR2Qn-261" value="+ getPlaylistDB(): PlaylistDB" style="text;strokeColor=none;fillColor=none;align=left;verticalAlign=top;spacingLeft=4;spacingRight=4;overflow=hidden;rotatable=0;points=[[0,0.5],[1,0.5]];portConstraint=eastwest;whiteSpace=wrap;html=1;" vertex="1" parent="kX5vgCcboWEuCoNkR2Qn-242">
          <mxGeometry y="260" width="290" height="26" as="geometry" />
        </mxCell>
        <mxCell id="kX5vgCcboWEuCoNkR2Qn-262" value="SonDB" style="swimlane;fontStyle=1;align=center;verticalAlign=top;childLayout=stackLayout;horizontal=1;startSize=26;horizontalStack=0;resizeParent=1;resizeParentMax=0;resizeLast=0;collapsible=1;marginBottom=0;whiteSpace=wrap;html=1;" vertex="1" parent="1">
          <mxGeometry x="1390" y="140" width="290" height="546" as="geometry" />
        </mxCell>
        <mxCell id="kX5vgCcboWEuCoNkR2Qn-263" value="- pdo: Pdo" style="text;strokeColor=none;fillColor=none;align=left;verticalAlign=top;spacingLeft=4;spacingRight=4;overflow=hidden;rotatable=0;points=[[0,0.5],[1,0.5]];portConstraint=eastwest;whiteSpace=wrap;html=1;" vertex="1" parent="kX5vgCcboWEuCoNkR2Qn-262">
          <mxGeometry y="26" width="290" height="26" as="geometry" />
        </mxCell>
        <mxCell id="kX5vgCcboWEuCoNkR2Qn-264" value="" style="line;strokeWidth=1;fillColor=none;align=left;verticalAlign=middle;spacingTop=-1;spacingLeft=3;spacingRight=3;rotatable=0;labelPosition=right;points=[];portConstraint=eastwest;strokeColor=inherit;" vertex="1" parent="kX5vgCcboWEuCoNkR2Qn-262">
          <mxGeometry y="52" width="290" height="8" as="geometry" />
        </mxCell>
        <mxCell id="kX5vgCcboWEuCoNkR2Qn-265" value="+ __construct(pdo: Pdo)" style="text;strokeColor=none;fillColor=none;align=left;verticalAlign=top;spacingLeft=4;spacingRight=4;overflow=hidden;rotatable=0;points=[[0,0.5],[1,0.5]];portConstraint=eastwest;whiteSpace=wrap;html=1;" vertex="1" parent="kX5vgCcboWEuCoNkR2Qn-262">
          <mxGeometry y="60" width="290" height="18" as="geometry" />
        </mxCell>
        <mxCell id="kX5vgCcboWEuCoNkR2Qn-266" value="+ findAll(): array(Son)" style="text;strokeColor=none;fillColor=none;align=left;verticalAlign=top;spacingLeft=4;spacingRight=4;overflow=hidden;rotatable=0;points=[[0,0.5],[1,0.5]];portConstraint=eastwest;whiteSpace=wrap;html=1;" vertex="1" parent="kX5vgCcboWEuCoNkR2Qn-262">
          <mxGeometry y="78" width="290" height="26" as="geometry" />
        </mxCell>
        <mxCell id="kX5vgCcboWEuCoNkR2Qn-267" value="+ find(idSon: int): Son" style="text;strokeColor=none;fillColor=none;align=left;verticalAlign=top;spacingLeft=4;spacingRight=4;overflow=hidden;rotatable=0;points=[[0,0.5],[1,0.5]];portConstraint=eastwest;whiteSpace=wrap;html=1;" vertex="1" parent="kX5vgCcboWEuCoNkR2Qn-262">
          <mxGeometry y="104" width="290" height="26" as="geometry" />
        </mxCell>
        <mxCell id="kX5vgCcboWEuCoNkR2Qn-268" value="+ findTop5Artist(idArtiste: int): array(Son)" style="text;strokeColor=none;fillColor=none;align=left;verticalAlign=top;spacingLeft=4;spacingRight=4;overflow=hidden;rotatable=0;points=[[0,0.5],[1,0.5]];portConstraint=eastwest;whiteSpace=wrap;html=1;" vertex="1" parent="kX5vgCcboWEuCoNkR2Qn-262">
          <mxGeometry y="130" width="290" height="26" as="geometry" />
        </mxCell>
        <mxCell id="kX5vgCcboWEuCoNkR2Qn-269" value="+ addStream(id: int): void" style="text;strokeColor=none;fillColor=none;align=left;verticalAlign=top;spacingLeft=4;spacingRight=4;overflow=hidden;rotatable=0;points=[[0,0.5],[1,0.5]];portConstraint=eastwest;whiteSpace=wrap;html=1;" vertex="1" parent="kX5vgCcboWEuCoNkR2Qn-262">
          <mxGeometry y="156" width="290" height="26" as="geometry" />
        </mxCell>
        <mxCell id="kX5vgCcboWEuCoNkR2Qn-270" value="+ addEcouter(idSon: int, idUtil: int): void" style="text;strokeColor=none;fillColor=none;align=left;verticalAlign=top;spacingLeft=4;spacingRight=4;overflow=hidden;rotatable=0;points=[[0,0.5],[1,0.5]];portConstraint=eastwest;whiteSpace=wrap;html=1;" vertex="1" parent="kX5vgCcboWEuCoNkR2Qn-262">
          <mxGeometry y="182" width="290" height="26" as="geometry" />
        </mxCell>
        <mxCell id="kX5vgCcboWEuCoNkR2Qn-271" value="+ findEcouter(idUtilisateur: int): array(Son)" style="text;strokeColor=none;fillColor=none;align=left;verticalAlign=top;spacingLeft=4;spacingRight=4;overflow=hidden;rotatable=0;points=[[0,0.5],[1,0.5]];portConstraint=eastwest;whiteSpace=wrap;html=1;" vertex="1" parent="kX5vgCcboWEuCoNkR2Qn-262">
          <mxGeometry y="208" width="290" height="26" as="geometry" />
        </mxCell>
        <mxCell id="kX5vgCcboWEuCoNkR2Qn-272" value="+ findArtist(idArtist: int): array(Son)" style="text;strokeColor=none;fillColor=none;align=left;verticalAlign=top;spacingLeft=4;spacingRight=4;overflow=hidden;rotatable=0;points=[[0,0.5],[1,0.5]];portConstraint=eastwest;whiteSpace=wrap;html=1;" vertex="1" parent="kX5vgCcboWEuCoNkR2Qn-262">
          <mxGeometry y="234" width="290" height="26" as="geometry" />
        </mxCell>
        <mxCell id="kX5vgCcboWEuCoNkR2Qn-273" value="+ findAlbum(idAlbum: int): array(Son)" style="text;strokeColor=none;fillColor=none;align=left;verticalAlign=top;spacingLeft=4;spacingRight=4;overflow=hidden;rotatable=0;points=[[0,0.5],[1,0.5]];portConstraint=eastwest;whiteSpace=wrap;html=1;" vertex="1" parent="kX5vgCcboWEuCoNkR2Qn-262">
          <mxGeometry y="260" width="290" height="26" as="geometry" />
        </mxCell>
        <mxCell id="kX5vgCcboWEuCoNkR2Qn-274" value="+ findSonOfAlbum(idAlbum: int): array(Son)" style="text;strokeColor=none;fillColor=none;align=left;verticalAlign=top;spacingLeft=4;spacingRight=4;overflow=hidden;rotatable=0;points=[[0,0.5],[1,0.5]];portConstraint=eastwest;whiteSpace=wrap;html=1;" vertex="1" parent="kX5vgCcboWEuCoNkR2Qn-262">
          <mxGeometry y="286" width="290" height="26" as="geometry" />
        </mxCell>
        <mxCell id="kX5vgCcboWEuCoNkR2Qn-275" value="+ findTopArtist(idArtiste: int): array(Son)" style="text;strokeColor=none;fillColor=none;align=left;verticalAlign=top;spacingLeft=4;spacingRight=4;overflow=hidden;rotatable=0;points=[[0,0.5],[1,0.5]];portConstraint=eastwest;whiteSpace=wrap;html=1;" vertex="1" parent="kX5vgCcboWEuCoNkR2Qn-262">
          <mxGeometry y="312" width="290" height="26" as="geometry" />
        </mxCell>
        <mxCell id="kX5vgCcboWEuCoNkR2Qn-276" value="+ findTopArtist5(idArtiste: int): array(Son)" style="text;strokeColor=none;fillColor=none;align=left;verticalAlign=top;spacingLeft=4;spacingRight=4;overflow=hidden;rotatable=0;points=[[0,0.5],[1,0.5]];portConstraint=eastwest;whiteSpace=wrap;html=1;" vertex="1" parent="kX5vgCcboWEuCoNkR2Qn-262">
          <mxGeometry y="338" width="290" height="26" as="geometry" />
        </mxCell>
        <mxCell id="kX5vgCcboWEuCoNkR2Qn-277" value="+ getCover(idSon: int): blob" style="text;strokeColor=none;fillColor=none;align=left;verticalAlign=top;spacingLeft=4;spacingRight=4;overflow=hidden;rotatable=0;points=[[0,0.5],[1,0.5]];portConstraint=eastwest;whiteSpace=wrap;html=1;" vertex="1" parent="kX5vgCcboWEuCoNkR2Qn-262">
          <mxGeometry y="364" width="290" height="26" as="geometry" />
        </mxCell>
        <mxCell id="kX5vgCcboWEuCoNkR2Qn-283" value="+ findTopSonAlbum(idAlbum: int): array(Son)" style="text;strokeColor=none;fillColor=none;align=left;verticalAlign=top;spacingLeft=4;spacingRight=4;overflow=hidden;rotatable=0;points=[[0,0.5],[1,0.5]];portConstraint=eastwest;whiteSpace=wrap;html=1;" vertex="1" parent="kX5vgCcboWEuCoNkR2Qn-262">
          <mxGeometry y="390" width="290" height="26" as="geometry" />
        </mxCell>
        <mxCell id="kX5vgCcboWEuCoNkR2Qn-282" value="+ getIdArtist(idSon: int): int" style="text;strokeColor=none;fillColor=none;align=left;verticalAlign=top;spacingLeft=4;spacingRight=4;overflow=hidden;rotatable=0;points=[[0,0.5],[1,0.5]];portConstraint=eastwest;whiteSpace=wrap;html=1;" vertex="1" parent="kX5vgCcboWEuCoNkR2Qn-262">
          <mxGeometry y="416" width="290" height="26" as="geometry" />
        </mxCell>
        <mxCell id="kX5vgCcboWEuCoNkR2Qn-281" value="+ findLike(idUtil: int): array(Son)" style="text;strokeColor=none;fillColor=none;align=left;verticalAlign=top;spacingLeft=4;spacingRight=4;overflow=hidden;rotatable=0;points=[[0,0.5],[1,0.5]];portConstraint=eastwest;whiteSpace=wrap;html=1;" vertex="1" parent="kX5vgCcboWEuCoNkR2Qn-262">
          <mxGeometry y="442" width="290" height="26" as="geometry" />
        </mxCell>
        <mxCell id="kX5vgCcboWEuCoNkR2Qn-280" value="+ insert(son: Son): void" style="text;strokeColor=none;fillColor=none;align=left;verticalAlign=top;spacingLeft=4;spacingRight=4;overflow=hidden;rotatable=0;points=[[0,0.5],[1,0.5]];portConstraint=eastwest;whiteSpace=wrap;html=1;" vertex="1" parent="kX5vgCcboWEuCoNkR2Qn-262">
          <mxGeometry y="468" width="290" height="26" as="geometry" />
        </mxCell>
        <mxCell id="kX5vgCcboWEuCoNkR2Qn-279" value="+ update(son: Son): void" style="text;strokeColor=none;fillColor=none;align=left;verticalAlign=top;spacingLeft=4;spacingRight=4;overflow=hidden;rotatable=0;points=[[0,0.5],[1,0.5]];portConstraint=eastwest;whiteSpace=wrap;html=1;" vertex="1" parent="kX5vgCcboWEuCoNkR2Qn-262">
          <mxGeometry y="494" width="290" height="26" as="geometry" />
        </mxCell>
        <mxCell id="kX5vgCcboWEuCoNkR2Qn-278" value="+ delete(idSon: int): void" style="text;strokeColor=none;fillColor=none;align=left;verticalAlign=top;spacingLeft=4;spacingRight=4;overflow=hidden;rotatable=0;points=[[0,0.5],[1,0.5]];portConstraint=eastwest;whiteSpace=wrap;html=1;" vertex="1" parent="kX5vgCcboWEuCoNkR2Qn-262">
          <mxGeometry y="520" width="290" height="26" as="geometry" />
        </mxCell>
        <mxCell id="kX5vgCcboWEuCoNkR2Qn-286" value="UtilisateurDB" style="swimlane;fontStyle=1;align=center;verticalAlign=top;childLayout=stackLayout;horizontal=1;startSize=26;horizontalStack=0;resizeParent=1;resizeParentMax=0;resizeLast=0;collapsible=1;marginBottom=0;whiteSpace=wrap;html=1;" vertex="1" parent="1">
          <mxGeometry x="1390" y="1238" width="290" height="260" as="geometry" />
        </mxCell>
        <mxCell id="kX5vgCcboWEuCoNkR2Qn-287" value="- pdo: Pdo" style="text;strokeColor=none;fillColor=none;align=left;verticalAlign=top;spacingLeft=4;spacingRight=4;overflow=hidden;rotatable=0;points=[[0,0.5],[1,0.5]];portConstraint=eastwest;whiteSpace=wrap;html=1;" vertex="1" parent="kX5vgCcboWEuCoNkR2Qn-286">
          <mxGeometry y="26" width="290" height="26" as="geometry" />
        </mxCell>
        <mxCell id="kX5vgCcboWEuCoNkR2Qn-288" value="" style="line;strokeWidth=1;fillColor=none;align=left;verticalAlign=middle;spacingTop=-1;spacingLeft=3;spacingRight=3;rotatable=0;labelPosition=right;points=[];portConstraint=eastwest;strokeColor=inherit;" vertex="1" parent="kX5vgCcboWEuCoNkR2Qn-286">
          <mxGeometry y="52" width="290" height="8" as="geometry" />
        </mxCell>
        <mxCell id="kX5vgCcboWEuCoNkR2Qn-289" value="+ __construct(pdo: Pdo)" style="text;strokeColor=none;fillColor=none;align=left;verticalAlign=top;spacingLeft=4;spacingRight=4;overflow=hidden;rotatable=0;points=[[0,0.5],[1,0.5]];portConstraint=eastwest;whiteSpace=wrap;html=1;" vertex="1" parent="kX5vgCcboWEuCoNkR2Qn-286">
          <mxGeometry y="60" width="290" height="18" as="geometry" />
        </mxCell>
        <mxCell id="kX5vgCcboWEuCoNkR2Qn-290" value="+ findAll(): array(Utilisateur)" style="text;strokeColor=none;fillColor=none;align=left;verticalAlign=top;spacingLeft=4;spacingRight=4;overflow=hidden;rotatable=0;points=[[0,0.5],[1,0.5]];portConstraint=eastwest;whiteSpace=wrap;html=1;" vertex="1" parent="kX5vgCcboWEuCoNkR2Qn-286">
          <mxGeometry y="78" width="290" height="26" as="geometry" />
        </mxCell>
        <mxCell id="kX5vgCcboWEuCoNkR2Qn-291" value="+ find(id: int): Utilisateur" style="text;strokeColor=none;fillColor=none;align=left;verticalAlign=top;spacingLeft=4;spacingRight=4;overflow=hidden;rotatable=0;points=[[0,0.5],[1,0.5]];portConstraint=eastwest;whiteSpace=wrap;html=1;" vertex="1" parent="kX5vgCcboWEuCoNkR2Qn-286">
          <mxGeometry y="104" width="290" height="26" as="geometry" />
        </mxCell>
        <mxCell id="kX5vgCcboWEuCoNkR2Qn-292" value="+ findWithPseudo(pseudo: string): Utilisateur" style="text;strokeColor=none;fillColor=none;align=left;verticalAlign=top;spacingLeft=4;spacingRight=4;overflow=hidden;rotatable=0;points=[[0,0.5],[1,0.5]];portConstraint=eastwest;whiteSpace=wrap;html=1;" vertex="1" parent="kX5vgCcboWEuCoNkR2Qn-286">
          <mxGeometry y="130" width="290" height="26" as="geometry" />
        </mxCell>
        <mxCell id="kX5vgCcboWEuCoNkR2Qn-293" value="+ insertUser(user: Utilisateur): void" style="text;strokeColor=none;fillColor=none;align=left;verticalAlign=top;spacingLeft=4;spacingRight=4;overflow=hidden;rotatable=0;points=[[0,0.5],[1,0.5]];portConstraint=eastwest;whiteSpace=wrap;html=1;" vertex="1" parent="kX5vgCcboWEuCoNkR2Qn-286">
          <mxGeometry y="156" width="290" height="26" as="geometry" />
        </mxCell>
        <mxCell id="kX5vgCcboWEuCoNkR2Qn-294" value="+ insertAdmin(user: Utilisateur): void" style="text;strokeColor=none;fillColor=none;align=left;verticalAlign=top;spacingLeft=4;spacingRight=4;overflow=hidden;rotatable=0;points=[[0,0.5],[1,0.5]];portConstraint=eastwest;whiteSpace=wrap;html=1;" vertex="1" parent="kX5vgCcboWEuCoNkR2Qn-286">
          <mxGeometry y="182" width="290" height="26" as="geometry" />
        </mxCell>
        <mxCell id="kX5vgCcboWEuCoNkR2Qn-295" value="+ update(user: Utilisateur): void" style="text;strokeColor=none;fillColor=none;align=left;verticalAlign=top;spacingLeft=4;spacingRight=4;overflow=hidden;rotatable=0;points=[[0,0.5],[1,0.5]];portConstraint=eastwest;whiteSpace=wrap;html=1;" vertex="1" parent="kX5vgCcboWEuCoNkR2Qn-286">
          <mxGeometry y="208" width="290" height="26" as="geometry" />
        </mxCell>
        <mxCell id="kX5vgCcboWEuCoNkR2Qn-296" value="+ delete(id: int): void" style="text;strokeColor=none;fillColor=none;align=left;verticalAlign=top;spacingLeft=4;spacingRight=4;overflow=hidden;rotatable=0;points=[[0,0.5],[1,0.5]];portConstraint=eastwest;whiteSpace=wrap;html=1;" vertex="1" parent="kX5vgCcboWEuCoNkR2Qn-286">
          <mxGeometry y="234" width="290" height="26" as="geometry" />
        </mxCell>
        <mxCell id="kX5vgCcboWEuCoNkR2Qn-308" value="" style="endArrow=none;html=1;rounded=0;exitX=0.5;exitY=0;exitDx=0;exitDy=0;entryX=0.504;entryY=1.108;entryDx=0;entryDy=0;entryPerimeter=0;" edge="1" parent="1" source="kX5vgCcboWEuCoNkR2Qn-242" target="kX5vgCcboWEuCoNkR2Qn-278">
          <mxGeometry width="50" height="50" relative="1" as="geometry">
            <mxPoint x="1490" y="795" as="sourcePoint" />
            <mxPoint x="1540" y="745" as="targetPoint" />
          </mxGeometry>
        </mxCell>
        <mxCell id="kX5vgCcboWEuCoNkR2Qn-309" value="1" style="rounded=1;whiteSpace=wrap;html=1;" vertex="1" parent="1">
          <mxGeometry x="1470" y="695" width="50" height="30" as="geometry" />
        </mxCell>
        <mxCell id="kX5vgCcboWEuCoNkR2Qn-310" value="- sonDB" style="rounded=1;whiteSpace=wrap;html=1;" vertex="1" parent="1">
          <mxGeometry x="1550" y="695" width="70" height="30" as="geometry" />
        </mxCell>
        <mxCell id="kX5vgCcboWEuCoNkR2Qn-311" value="1" style="rounded=1;whiteSpace=wrap;html=1;" vertex="1" parent="1">
          <mxGeometry x="1472" y="1196" width="50" height="30" as="geometry" />
        </mxCell>
        <mxCell id="kX5vgCcboWEuCoNkR2Qn-312" value="- sonDB" style="rounded=1;whiteSpace=wrap;html=1;" vertex="1" parent="1">
          <mxGeometry x="1552" y="1196" width="70" height="30" as="geometry" />
        </mxCell>
        <mxCell id="kX5vgCcboWEuCoNkR2Qn-313" value="" style="endArrow=none;html=1;rounded=0;exitX=0.5;exitY=0;exitDx=0;exitDy=0;entryX=0.496;entryY=1.01;entryDx=0;entryDy=0;entryPerimeter=0;" edge="1" parent="1" source="kX5vgCcboWEuCoNkR2Qn-286" target="kX5vgCcboWEuCoNkR2Qn-261">
          <mxGeometry width="50" height="50" relative="1" as="geometry">
            <mxPoint x="1500" y="1165" as="sourcePoint" />
            <mxPoint x="1550" y="1115" as="targetPoint" />
          </mxGeometry>
        </mxCell>
        <mxCell id="kX5vgCcboWEuCoNkR2Qn-314" value="" style="endArrow=none;html=1;rounded=0;exitX=0;exitY=0;exitDx=0;exitDy=0;entryX=1;entryY=0.5;entryDx=0;entryDy=0;" edge="1" parent="1" source="kX5vgCcboWEuCoNkR2Qn-242" target="kX5vgCcboWEuCoNkR2Qn-155">
          <mxGeometry width="50" height="50" relative="1" as="geometry">
            <mxPoint x="1380" y="785" as="sourcePoint" />
            <mxPoint x="1330" y="695" as="targetPoint" />
          </mxGeometry>
        </mxCell>
        <mxCell id="kX5vgCcboWEuCoNkR2Qn-316" value="" style="endArrow=none;html=1;rounded=0;exitX=1;exitY=0.5;exitDx=0;exitDy=0;entryX=-0.001;entryY=0.357;entryDx=0;entryDy=0;entryPerimeter=0;" edge="1" parent="1" source="kX5vgCcboWEuCoNkR2Qn-222" target="kX5vgCcboWEuCoNkR2Qn-258">
          <mxGeometry width="50" height="50" relative="1" as="geometry">
            <mxPoint x="1290" y="1015" as="sourcePoint" />
            <mxPoint x="1340" y="965" as="targetPoint" />
          </mxGeometry>
        </mxCell>
        <mxCell id="kX5vgCcboWEuCoNkR2Qn-317" value="" style="endArrow=none;html=1;rounded=0;exitX=1;exitY=0.5;exitDx=0;exitDy=0;entryX=0;entryY=0.5;entryDx=0;entryDy=0;" edge="1" parent="1" source="kX5vgCcboWEuCoNkR2Qn-235" target="kX5vgCcboWEuCoNkR2Qn-261">
          <mxGeometry width="50" height="50" relative="1" as="geometry">
            <mxPoint x="1310" y="1385" as="sourcePoint" />
            <mxPoint x="1360" y="1335" as="targetPoint" />
          </mxGeometry>
        </mxCell>
        <mxCell id="kX5vgCcboWEuCoNkR2Qn-318" value="" style="endArrow=none;html=1;rounded=0;entryX=0;entryY=0.5;entryDx=0;entryDy=0;exitX=0.997;exitY=1.044;exitDx=0;exitDy=0;exitPerimeter=0;" edge="1" parent="1" source="kX5vgCcboWEuCoNkR2Qn-261" target="kX5vgCcboWEuCoNkR2Qn-206">
          <mxGeometry width="50" height="50" relative="1" as="geometry">
            <mxPoint x="1730" y="1275" as="sourcePoint" />
            <mxPoint x="1780" y="1225" as="targetPoint" />
          </mxGeometry>
        </mxCell>
        <mxCell id="kX5vgCcboWEuCoNkR2Qn-319" value="" style="endArrow=none;html=1;rounded=0;entryX=0;entryY=0.5;entryDx=0;entryDy=0;exitX=1;exitY=0.5;exitDx=0;exitDy=0;" edge="1" parent="1" source="kX5vgCcboWEuCoNkR2Qn-256" target="kX5vgCcboWEuCoNkR2Qn-200">
          <mxGeometry width="50" height="50" relative="1" as="geometry">
            <mxPoint x="1760" y="1106.5" as="sourcePoint" />
            <mxPoint x="1810" y="1056.5" as="targetPoint" />
          </mxGeometry>
        </mxCell>
        <mxCell id="kX5vgCcboWEuCoNkR2Qn-320" value="" style="endArrow=none;html=1;rounded=0;exitX=1;exitY=0.5;exitDx=0;exitDy=0;entryX=-0.001;entryY=0.937;entryDx=0;entryDy=0;entryPerimeter=0;" edge="1" parent="1" source="kX5vgCcboWEuCoNkR2Qn-259" target="kX5vgCcboWEuCoNkR2Qn-191">
          <mxGeometry width="50" height="50" relative="1" as="geometry">
            <mxPoint x="1740" y="985" as="sourcePoint" />
            <mxPoint x="1790" y="935" as="targetPoint" />
          </mxGeometry>
        </mxCell>
        <mxCell id="kX5vgCcboWEuCoNkR2Qn-321" value="" style="endArrow=none;html=1;rounded=0;exitX=1;exitY=0.5;exitDx=0;exitDy=0;entryX=0;entryY=0.5;entryDx=0;entryDy=0;" edge="1" parent="1" source="kX5vgCcboWEuCoNkR2Qn-246" target="kX5vgCcboWEuCoNkR2Qn-187">
          <mxGeometry width="50" height="50" relative="1" as="geometry">
            <mxPoint x="1720" y="795" as="sourcePoint" />
            <mxPoint x="1770" y="745" as="targetPoint" />
          </mxGeometry>
        </mxCell>
        <mxCell id="kX5vgCcboWEuCoNkR2Qn-322" value="" style="endArrow=none;html=1;rounded=0;exitX=1;exitY=0;exitDx=0;exitDy=0;entryX=0;entryY=0.5;entryDx=0;entryDy=0;" edge="1" parent="1" source="kX5vgCcboWEuCoNkR2Qn-242" target="kX5vgCcboWEuCoNkR2Qn-171">
          <mxGeometry width="50" height="50" relative="1" as="geometry">
            <mxPoint x="1750" y="595" as="sourcePoint" />
            <mxPoint x="1800" y="545" as="targetPoint" />
          </mxGeometry>
        </mxCell>
        <mxCell id="kX5vgCcboWEuCoNkR2Qn-324" value="1" style="rounded=1;whiteSpace=wrap;html=1;" vertex="1" parent="1">
          <mxGeometry x="1226" y="1267" width="30" height="30" as="geometry" />
        </mxCell>
        <mxCell id="kX5vgCcboWEuCoNkR2Qn-325" value="- rechercheDB" style="rounded=1;whiteSpace=wrap;html=1;" vertex="1" parent="1">
          <mxGeometry x="1250" y="1316" width="90" height="30" as="geometry" />
        </mxCell>
        <mxCell id="kX5vgCcboWEuCoNkR2Qn-326" value="- playlistDB" style="rounded=1;whiteSpace=wrap;html=1;" vertex="1" parent="1">
          <mxGeometry x="1226" y="995" width="90" height="30" as="geometry" />
        </mxCell>
        <mxCell id="kX5vgCcboWEuCoNkR2Qn-327" value="1" style="rounded=1;whiteSpace=wrap;html=1;" vertex="1" parent="1">
          <mxGeometry x="1230" y="948.5" width="50" height="30" as="geometry" />
        </mxCell>
        <mxCell id="kX5vgCcboWEuCoNkR2Qn-328" value="- albumDB" style="rounded=1;whiteSpace=wrap;html=1;" vertex="1" parent="1">
          <mxGeometry x="1240" y="665" width="90" height="30" as="geometry" />
        </mxCell>
        <mxCell id="kX5vgCcboWEuCoNkR2Qn-329" value="1" style="rounded=1;whiteSpace=wrap;html=1;" vertex="1" parent="1">
          <mxGeometry x="1230" y="725" width="30" height="30" as="geometry" />
        </mxCell>
        <mxCell id="kX5vgCcboWEuCoNkR2Qn-330" value="1" style="rounded=1;whiteSpace=wrap;html=1;" vertex="1" parent="1">
          <mxGeometry x="1820" y="1195" width="20" height="30" as="geometry" />
        </mxCell>
        <mxCell id="kX5vgCcboWEuCoNkR2Qn-331" value="- likeSonDB" style="rounded=1;whiteSpace=wrap;html=1;" vertex="1" parent="1">
          <mxGeometry x="1760" y="1245" width="70" height="30" as="geometry" />
        </mxCell>
        <mxCell id="kX5vgCcboWEuCoNkR2Qn-332" value="1" style="rounded=1;whiteSpace=wrap;html=1;" vertex="1" parent="1">
          <mxGeometry x="1820" y="1055" width="20" height="30" as="geometry" />
        </mxCell>
        <mxCell id="kX5vgCcboWEuCoNkR2Qn-333" value="- likeArtistDB" style="rounded=1;whiteSpace=wrap;html=1;" vertex="1" parent="1">
          <mxGeometry x="1760" y="1105" width="80" height="30" as="geometry" />
        </mxCell>
        <mxCell id="kX5vgCcboWEuCoNkR2Qn-334" value="1" style="rounded=1;whiteSpace=wrap;html=1;" vertex="1" parent="1">
          <mxGeometry x="1820" y="925" width="20" height="30" as="geometry" />
        </mxCell>
        <mxCell id="kX5vgCcboWEuCoNkR2Qn-335" value="- likeAlbumDB" style="rounded=1;whiteSpace=wrap;html=1;" vertex="1" parent="1">
          <mxGeometry x="1760" y="975" width="80" height="30" as="geometry" />
        </mxCell>
        <mxCell id="kX5vgCcboWEuCoNkR2Qn-337" value="1" style="rounded=1;whiteSpace=wrap;html=1;" vertex="1" parent="1">
          <mxGeometry x="1820" y="865" width="20" height="30" as="geometry" />
        </mxCell>
        <mxCell id="kX5vgCcboWEuCoNkR2Qn-338" value="- genreDB" style="rounded=1;whiteSpace=wrap;html=1;" vertex="1" parent="1">
          <mxGeometry x="1755" y="805" width="80" height="30" as="geometry" />
        </mxCell>
        <mxCell id="kX5vgCcboWEuCoNkR2Qn-339" value="- artistDB" style="rounded=1;whiteSpace=wrap;html=1;" vertex="1" parent="1">
          <mxGeometry x="1750" y="555" width="80" height="30" as="geometry" />
        </mxCell>
        <mxCell id="kX5vgCcboWEuCoNkR2Qn-340" value="1" style="rounded=1;whiteSpace=wrap;html=1;" vertex="1" parent="1">
          <mxGeometry x="1820" y="627" width="20" height="30" as="geometry" />
        </mxCell>
      </root>
    </mxGraphModel>
  </diagram>
</mxfile>
